{"glyphs":{"0":{"ha":860,"x_min":37,"x_max":822,"o":"m 429 956 q 598 911 525 956 q 721 796 671 867 q 797 638 771 725 q 822 467 822 551 q 797 294 822 382 q 721 136 771 207 q 598 21 671 65 q 429 -24 525 -24 q 262 21 335 -24 q 139 136 189 65 q 63 294 89 207 q 37 467 37 382 q 63 638 37 551 q 139 796 89 725 q 262 911 189 867 q 429 956 335 956 m 429 83 q 535 114 486 83 q 622 197 585 144 q 680 318 659 249 q 701 467 701 387 q 680 613 701 545 q 621 734 659 682 q 534 817 583 786 q 429 848 485 847 q 376 840 403 847 q 326 818 350 833 l 328 818 q 286 769 309 803 q 261 690 262 736 l 261 689 q 265 647 261 671 q 280 602 269 624 q 306 566 290 581 q 345 551 322 551 q 366 555 353 551 q 357 590 357 575 q 385 652 357 628 q 450 676 414 676 q 514 652 486 676 q 542 590 542 628 q 522 536 542 561 q 472 492 501 511 q 410 463 443 473 q 353 452 378 452 q 244 484 290 452 q 170 570 197 517 q 160 519 163 545 q 158 467 158 494 q 180 318 158 387 q 238 197 201 249 q 325 114 275 144 q 429 83 374 83 z "},"1":{"ha":347,"x_min":25,"x_max":300,"o":"m 288 21 l 286 39 l 300 0 l 153 0 l 167 39 l 165 16 l 165 774 q 100 743 135 757 q 25 718 65 729 l 25 831 q 64 846 41 838 q 111 866 87 854 q 154 891 134 878 q 191 924 175 905 l 207 942 l 288 942 l 288 21 z "},"2":{"ha":829,"x_min":32,"x_max":804,"o":"m 612 340 q 684 329 650 340 q 745 294 718 317 q 788 240 771 272 q 804 168 804 208 q 773 47 804 97 q 693 -34 742 -3 q 583 -79 644 -65 q 460 -93 521 -93 q 351 -83 401 -93 q 269 -58 301 -74 q 210 -34 237 -43 q 163 -21 182 -25 q 119 -14 139 -16 l 61 -11 l 61 72 l 75 89 q 272 315 175 201 q 465 547 370 429 q 529 644 507 597 q 550 728 550 690 q 531 787 550 764 q 485 824 513 810 q 425 842 457 838 q 363 847 392 847 q 321 846 347 847 q 267 838 296 844 q 209 816 237 831 q 160 774 180 802 q 153 755 154 765 q 206 730 184 751 q 228 679 228 708 q 202 624 228 647 q 140 602 176 602 q 91 615 111 602 q 58 649 71 628 q 38 696 45 671 q 32 747 32 722 q 62 839 32 799 q 139 907 96 884 q 226 941 183 930 q 306 954 269 951 q 363 956 343 956 q 471 944 416 956 q 571 905 526 932 q 644 834 615 878 q 672 729 672 791 q 648 620 672 682 q 559 479 624 558 q 391 276 476 376 q 218 77 306 176 q 271 60 245 69 q 321 39 297 50 q 380 22 342 29 q 463 16 418 16 q 539 22 500 16 q 610 46 578 29 q 663 94 642 64 q 684 168 684 123 q 663 217 682 200 q 612 233 643 233 q 585 228 597 233 q 623 164 623 204 q 596 107 621 131 q 539 83 572 83 q 500 93 518 83 q 469 117 482 102 q 448 152 456 132 q 440 191 440 171 q 454 255 440 227 q 492 302 468 283 q 547 331 515 321 q 612 340 578 340 z "},"3":{"ha":802,"x_min":29,"x_max":766,"o":"m 407 602 q 541 565 476 591 q 655 497 606 539 q 736 397 705 456 q 766 260 766 338 q 732 109 766 175 q 642 -2 699 43 q 512 -70 585 -46 q 359 -93 439 -93 l 355 -93 q 247 -79 304 -93 q 140 -36 189 -65 q 60 38 92 -7 q 29 143 29 82 q 47 216 29 183 q 94 273 65 249 q 158 310 122 297 q 232 323 195 323 q 307 311 271 323 q 371 275 343 298 l 378 269 q 406 210 406 241 q 378 151 406 174 q 315 127 351 127 q 253 152 279 127 q 227 212 227 176 q 178 190 200 208 q 155 143 155 171 q 160 122 155 131 q 193 72 171 92 q 242 40 215 52 q 300 24 269 29 q 359 20 330 20 q 465 35 414 20 q 554 80 515 50 q 616 156 593 110 q 640 261 640 201 q 606 378 640 332 q 518 450 571 424 q 401 487 465 476 q 281 497 338 497 l 216 497 l 216 602 l 505 829 l 139 829 l 78 807 l 78 942 l 704 942 l 704 838 l 407 602 z "},"4":{"ha":804,"x_min":14,"x_max":772,"o":"m 14 175 l 14 268 l 551 947 l 690 947 l 677 911 l 677 288 l 772 288 l 772 175 l 677 175 l 677 37 l 690 0 l 538 0 l 551 39 l 551 175 l 14 175 m 551 734 l 175 288 l 551 288 l 551 734 z "},"5":{"ha":733,"x_min":-29,"x_max":697,"o":"m 350 646 q 548 596 463 646 q 676 437 633 546 q 697 329 697 383 q 608 93 697 210 q 511 -4 567 39 q 390 -77 454 -47 q 253 -124 325 -107 q 110 -140 182 -140 q 33 -136 69 -140 l -29 -129 l -16 -17 l 49 -25 q 79 -28 64 -28 q 110 -28 94 -28 q 235 -12 175 -28 q 346 30 294 4 q 438 90 397 56 q 509 161 479 123 q 555 244 539 201 q 571 329 571 288 q 558 396 571 366 q 478 502 530 469 q 350 534 427 534 q 278 528 313 534 q 216 514 243 522 q 172 498 189 505 q 155 492 155 492 l 121 478 l 35 539 l 35 942 l 632 942 l 632 802 l 571 829 l 163 829 l 163 616 q 245 637 197 628 q 350 646 293 646 z "},"6":{"ha":842,"x_min":40,"x_max":804,"o":"m 164 510 q 288 597 216 567 q 437 628 359 628 q 579 600 513 628 q 696 524 646 572 q 775 409 746 475 q 804 268 804 343 q 774 127 804 193 q 694 13 745 61 q 578 -64 644 -36 q 436 -92 511 -92 q 251 -51 326 -92 q 129 59 176 -11 q 61 223 82 129 q 40 424 40 317 q 71 624 40 526 q 161 796 102 721 q 307 916 220 871 q 505 961 393 961 q 582 954 539 961 q 661 930 624 947 q 724 884 699 913 q 750 812 750 856 q 718 749 750 772 q 648 725 686 725 q 590 749 614 725 q 567 810 567 774 q 571 832 567 823 q 574 843 572 838 q 496 854 532 854 q 368 824 425 854 q 269 746 311 794 q 200 637 227 699 q 164 510 174 575 m 436 14 q 534 34 489 14 q 613 89 579 54 q 667 169 647 123 q 686 268 686 215 q 667 365 686 319 q 613 445 647 410 q 534 499 579 479 q 437 521 489 519 q 340 501 386 521 q 260 446 294 481 q 207 365 227 411 q 187 267 187 319 q 208 171 187 216 q 262 92 228 126 q 341 36 296 57 q 436 14 386 16 z "},"7":{"ha":796,"x_min":45,"x_max":758,"o":"m 45 942 l 758 942 l 758 839 l 725 821 q 704 807 725 821 q 650 762 684 793 q 574 685 616 732 q 488 568 532 637 q 431 467 460 524 q 376 340 401 411 q 329 184 350 269 q 296 0 309 100 l 168 0 q 210 229 182 115 q 285 449 239 343 q 396 652 332 555 q 547 829 461 749 l 113 829 l 45 800 l 45 942 z "},"8":{"ha":819,"x_min":33,"x_max":785,"o":"m 599 529 q 733 407 682 485 q 785 237 785 329 q 755 106 785 168 q 675 -1 726 45 q 556 -75 624 -47 q 410 -102 488 -102 q 263 -75 332 -102 q 144 -1 195 -47 q 63 106 93 45 q 33 237 33 168 q 83 405 33 329 q 215 526 134 481 q 145 608 171 561 q 119 707 119 654 q 142 801 119 757 q 205 879 165 846 q 297 932 244 913 q 410 951 350 951 q 522 932 469 951 q 613 879 574 913 q 676 801 653 846 q 699 707 699 757 q 673 608 699 654 q 603 526 647 561 l 599 529 m 572 707 q 559 759 572 734 q 524 801 546 783 q 473 828 503 818 q 410 839 443 839 q 347 828 376 839 q 294 801 317 818 q 260 759 272 783 q 248 707 248 734 q 260 656 248 681 q 294 614 272 632 q 347 586 317 596 q 410 575 376 575 q 473 586 443 575 q 524 614 503 596 q 559 656 546 632 q 572 707 572 681 m 160 237 q 179 150 160 191 q 233 78 199 109 q 312 29 267 47 q 410 11 358 11 q 506 29 461 11 q 585 78 551 47 q 639 150 619 109 q 659 237 659 191 q 639 325 659 283 q 585 396 619 366 q 506 445 551 427 q 410 463 461 463 q 312 445 358 463 q 233 396 267 427 q 179 325 199 366 q 160 237 160 283 z "},"9":{"ha":836,"x_min":35,"x_max":796,"o":"m 35 596 q 64 736 35 671 q 143 850 93 802 q 259 926 193 899 q 399 954 325 954 q 507 938 456 954 q 602 891 558 921 q 680 820 646 861 q 736 730 714 779 q 766 645 754 690 q 784 558 778 600 q 793 481 790 517 q 796 424 796 446 q 765 228 796 322 q 676 61 734 134 q 533 -57 618 -12 q 339 -102 449 -102 q 266 -95 307 -102 q 189 -70 225 -87 q 129 -25 153 -53 q 104 45 104 3 q 136 109 104 85 q 204 132 167 132 q 262 107 239 132 q 285 47 285 82 q 284 36 285 41 q 283 25 283 31 q 281 16 282 21 q 349 7 314 7 q 477 37 419 7 q 576 118 534 68 q 643 231 618 168 q 675 359 668 294 q 551 267 624 300 q 399 235 478 235 q 258 263 323 235 q 142 340 192 292 q 63 455 92 389 q 35 596 35 521 m 400 342 q 497 362 453 342 q 575 417 542 382 q 627 497 608 452 q 646 595 646 543 q 626 689 646 644 q 573 770 607 734 q 495 826 539 806 q 400 847 450 847 q 303 827 349 847 q 225 773 258 807 q 173 693 192 739 q 154 595 154 647 q 173 499 154 545 q 225 418 192 453 q 303 362 258 383 q 400 342 349 342 z "}," ":{"ha":518,"x_min":0,"x_max":0,"o":""}," ":{"ha":518,"x_min":0,"x_max":0,"o":""},"!":{"ha":279,"x_min":39,"x_max":237,"o":"m 89 885 l 90 879 l 65 907 l 199 949 l 199 300 l 212 262 l 89 262 l 89 885 m 139 0 q 68 28 97 0 q 39 97 39 57 q 68 165 39 138 q 139 193 97 193 q 208 165 179 193 q 237 97 237 138 q 208 28 237 57 q 139 0 179 0 z "},"\"":{"ha":496,"x_min":29,"x_max":465,"o":"m 364 954 q 411 944 392 954 q 443 916 431 933 q 460 877 454 899 q 465 831 465 854 q 417 681 465 745 q 302 568 370 616 l 256 624 q 333 706 314 675 q 351 754 351 737 q 350 764 351 761 q 290 795 314 768 q 265 859 265 822 q 294 926 265 899 q 364 954 323 954 m 138 954 q 185 944 165 954 q 216 916 204 933 q 233 877 228 899 q 239 831 239 854 q 191 681 239 745 q 77 568 143 616 l 29 624 q 61 651 45 636 q 93 685 78 667 q 116 722 107 703 q 125 764 125 742 q 63 795 87 768 q 39 859 39 822 q 68 926 39 899 q 138 954 97 954 z "},"#":{"ha":665,"x_min":39,"x_max":628,"o":"m 555 654 l 628 654 l 628 549 l 555 549 l 555 311 l 628 311 l 628 207 l 555 207 l 555 37 l 446 37 l 446 207 l 221 207 l 221 37 l 110 37 l 110 207 l 39 207 l 39 311 l 110 311 l 110 549 l 39 549 l 39 654 l 110 654 l 110 823 l 221 823 l 221 654 l 446 654 l 446 823 l 555 823 l 555 654 m 446 549 l 221 549 l 221 311 l 446 311 l 446 549 z "},"$":{"ha":707,"x_min":5,"x_max":701,"o":"m 411 564 q 511 519 460 543 q 605 459 562 494 q 674 374 647 424 q 701 256 701 325 q 673 119 701 180 q 596 13 644 57 q 485 -57 549 -32 q 349 -82 421 -82 q 228 -63 289 -82 q 117 -8 167 -45 q 37 79 68 28 q 5 197 5 131 q 12 256 5 221 l 12 257 q 44 323 21 293 q 98 377 66 354 q 168 413 129 400 q 249 427 207 427 l 252 427 q 356 399 310 425 q 428 328 401 374 l 428 326 q 446 253 446 292 q 425 178 446 212 q 363 126 404 143 q 329 119 349 119 q 272 141 297 121 q 248 195 248 161 q 269 244 248 222 q 323 268 290 267 l 321 278 q 286 310 306 302 q 250 319 267 318 q 162 284 197 319 q 126 197 126 249 q 147 124 126 155 q 201 71 168 93 q 273 38 233 49 q 349 26 313 26 q 409 35 368 26 q 490 71 450 43 q 581 256 581 129 q 566 327 581 297 q 523 380 551 357 q 454 424 494 404 q 364 465 414 444 q 266 510 315 486 q 177 566 216 533 q 113 644 138 599 q 87 753 87 689 q 113 850 87 807 q 177 922 138 893 q 266 967 216 951 q 366 983 315 983 l 368 983 q 439 971 400 983 q 511 937 478 960 q 567 879 545 914 q 590 798 590 844 q 590 787 590 791 q 589 775 590 782 q 560 720 587 742 q 501 699 533 699 q 440 721 467 699 q 414 779 414 743 q 449 844 414 818 q 367 876 412 876 l 366 876 q 311 868 339 876 q 261 845 283 860 q 224 806 239 829 q 210 753 210 782 q 223 690 210 717 q 264 642 237 664 q 327 603 290 621 q 411 564 364 585 m 299 -233 l 299 -3 l 409 -3 l 409 -233 l 299 -233 m 299 901 l 299 1131 l 409 1131 l 409 901 l 299 901 z "},"%":{"ha":1160,"x_min":32,"x_max":1129,"o":"m 821 942 l 471 43 l 469 0 l 339 0 l 694 911 l 699 942 l 821 942 m 528 653 q 510 535 528 589 q 459 444 492 482 q 381 385 427 406 q 279 364 335 364 q 179 385 225 364 q 101 444 134 406 q 50 535 68 482 q 32 653 32 589 q 50 769 32 717 q 101 860 68 822 q 179 919 134 899 q 279 940 225 940 q 381 919 335 940 q 459 860 427 899 q 510 769 492 822 q 528 653 528 717 m 279 468 q 384 517 346 468 q 422 653 422 567 q 384 787 422 737 q 279 836 346 836 q 176 787 214 836 q 138 653 138 737 q 176 517 138 567 q 279 468 214 468 m 880 576 q 980 555 935 576 q 1060 496 1026 534 q 1111 406 1093 458 q 1129 289 1129 353 q 1111 172 1129 225 q 1060 80 1093 118 q 980 21 1026 41 q 880 0 935 0 q 781 21 827 0 q 702 80 734 41 q 651 172 669 118 q 633 289 633 225 q 651 406 633 353 q 702 496 669 458 q 781 555 734 534 q 880 576 827 576 m 880 104 q 985 154 947 104 q 1022 289 1022 203 q 985 423 1022 374 q 880 472 947 472 q 777 423 814 472 q 739 289 739 374 q 777 156 739 204 q 880 104 815 107 z "},"&":{"ha":945,"x_min":28,"x_max":912,"o":"m 833 269 q 801 275 816 269 q 776 291 787 281 q 759 316 765 302 q 752 347 752 330 q 752 352 752 349 q 753 358 752 355 q 723 336 737 352 q 695 303 710 322 q 663 261 680 285 q 648 242 655 252 q 632 221 641 232 q 692 155 666 183 q 737 109 718 127 q 765 88 755 93 q 829 132 784 132 q 854 127 842 132 q 875 113 866 122 q 890 93 884 104 q 895 67 895 81 q 884 32 895 47 q 854 4 872 16 q 817 -13 837 -7 q 779 -20 796 -20 l 776 -20 q 713 -5 742 -20 q 661 33 684 11 q 617 78 642 52 q 563 137 592 104 q 500 70 534 104 q 429 9 467 36 q 348 -35 391 -18 q 258 -52 306 -52 l 256 -52 q 164 -33 205 -51 q 92 15 122 -16 q 45 88 62 46 q 28 180 28 130 q 50 286 28 239 q 109 378 71 334 q 172 451 141 417 q 234 517 203 486 q 211 544 222 531 q 189 570 199 557 q 111 756 111 664 q 127 841 111 802 q 173 910 144 881 q 242 956 203 939 q 328 973 282 973 q 409 958 372 973 q 473 917 446 943 q 516 853 500 890 q 531 774 531 817 q 486 639 531 707 q 380 513 438 573 l 404 486 q 482 395 444 439 q 559 304 519 351 q 566 314 562 309 q 574 323 570 318 l 573 323 q 575 325 574 323 q 642 408 610 372 q 699 450 667 435 q 767 465 731 465 q 818 457 793 465 q 864 434 844 449 q 898 396 885 418 q 912 347 911 374 q 906 316 912 330 q 889 291 899 302 q 864 275 878 281 q 833 269 849 269 m 228 756 q 277 640 228 699 q 294 618 286 628 q 312 595 302 608 q 393 699 356 645 q 417 774 417 736 q 411 811 417 794 q 393 841 405 829 q 366 861 382 854 q 330 868 350 868 q 289 859 307 868 q 257 835 270 850 q 236 800 243 820 q 228 756 228 779 m 490 218 q 407 317 448 267 q 323 418 366 367 q 320 421 321 420 q 318 423 319 422 q 313 429 315 427 q 309 435 312 431 q 254 375 282 406 q 199 311 227 345 q 157 240 169 273 q 146 178 146 207 q 148 155 146 168 q 155 129 151 142 q 165 105 159 117 q 180 87 172 94 q 265 54 211 54 l 270 54 q 331 72 300 54 q 391 114 362 89 q 446 168 420 140 q 490 218 472 196 z "},"'":{"ha":271,"x_min":29,"x_max":239,"o":"m 138 954 q 185 944 165 954 q 216 916 204 933 q 233 877 228 899 q 239 831 239 854 q 191 681 239 745 q 77 568 143 616 l 29 624 q 61 651 45 636 q 93 685 78 667 q 116 722 107 703 q 125 764 125 742 q 63 795 87 768 q 39 859 39 822 q 68 926 39 899 q 138 954 97 954 z "},"(":{"ha":277,"x_min":46,"x_max":258,"o":"m 258 1013 q 170 431 170 724 q 258 -151 170 138 l 149 -151 q 46 431 46 142 q 149 1013 46 720 l 258 1013 z "},")":{"ha":275,"x_min":18,"x_max":231,"o":"m 127 1013 q 231 431 231 720 q 127 -151 231 142 l 18 -151 q 107 431 107 138 q 18 1013 107 724 l 127 1013 z "},"*":{"ha":508,"x_min":34,"x_max":478,"o":"m 292 585 l 311 421 l 201 421 l 220 586 l 98 474 l 34 564 l 199 656 l 34 749 l 98 838 l 220 725 l 201 890 l 311 890 l 292 726 l 414 838 l 478 749 l 313 656 l 478 564 l 414 474 l 292 585 z "},"+":{"ha":498,"x_min":28,"x_max":471,"o":"m 304 482 l 471 482 l 471 378 l 304 378 l 304 211 l 195 211 l 195 378 l 28 378 l 28 482 l 195 482 l 195 648 l 304 648 l 304 482 z "},",":{"ha":254,"x_min":17,"x_max":227,"o":"m 125 193 q 172 183 153 193 q 203 155 192 172 q 221 115 215 138 q 227 69 227 93 q 179 -81 227 -17 q 64 -193 132 -144 l 17 -138 q 48 -110 32 -125 q 79 -76 65 -94 q 103 -39 93 -58 q 113 1 113 -20 q 51 34 75 7 q 26 97 26 61 q 56 165 26 138 q 125 193 85 193 z "},"-":{"ha":406,"x_min":22,"x_max":385,"o":"m 22 378 l 22 482 l 385 482 l 385 378 l 22 378 z "},"­":{"ha":406,"x_min":22,"x_max":385,"o":"m 22 378 l 22 482 l 385 482 l 385 378 l 22 378 z "},".":{"ha":254,"x_min":28,"x_max":227,"o":"m 127 0 q 57 28 86 0 q 28 97 28 57 q 57 165 28 138 q 127 193 86 193 q 197 165 168 193 q 227 97 227 138 q 197 28 227 57 q 127 0 168 0 z "},"/":{"ha":503,"x_min":-1,"x_max":481,"o":"m 366 1013 l 481 1013 l 114 -151 l -1 -151 l 366 1013 z "},":":{"ha":268,"x_min":35,"x_max":233,"o":"m 135 468 q 64 496 93 468 q 35 566 35 525 q 64 633 35 606 q 135 661 94 661 q 204 633 175 661 q 233 566 233 606 q 204 496 233 525 q 135 468 175 468 m 135 193 q 204 165 175 193 q 233 97 233 138 q 204 28 233 57 q 135 0 175 0 q 64 28 93 0 q 35 97 35 57 q 64 165 35 138 q 135 193 93 193 z "},";":{"ha":272,"x_min":28,"x_max":237,"o":"m 134 468 q 62 496 92 468 q 33 566 33 525 q 63 633 33 606 q 134 661 93 661 q 202 633 174 661 q 232 566 231 604 q 203 496 232 524 q 134 468 174 468 m 136 193 q 185 183 165 193 q 216 155 204 172 q 233 115 228 138 q 237 69 237 93 q 190 -81 237 -17 q 75 -193 142 -144 l 28 -138 q 60 -110 43 -125 q 91 -76 77 -94 q 114 -39 104 -58 q 123 1 123 -20 q 62 34 86 7 q 37 97 37 61 q 66 165 37 138 q 136 193 96 193 z "},"<":{"ha":536,"x_min":29,"x_max":501,"o":"m 29 526 l 501 689 l 501 578 l 155 458 q 304 349 215 404 q 501 241 393 294 l 501 138 q 340 198 422 154 q 187 292 257 243 q 29 414 106 347 l 29 526 z "},"=":{"ha":446,"x_min":29,"x_max":416,"o":"m 29 496 l 29 600 l 416 600 l 416 496 l 29 496 m 29 261 l 29 366 l 416 366 l 416 261 l 29 261 z "},">":{"ha":536,"x_min":35,"x_max":507,"o":"m 35 689 q 115 665 74 681 q 196 628 155 648 q 276 583 237 607 q 349 534 314 558 q 507 412 431 479 l 507 300 l 35 138 l 35 249 l 382 368 q 232 477 321 422 q 35 585 143 532 l 35 689 z "},"?":{"ha":660,"x_min":24,"x_max":632,"o":"m 323 965 q 439 946 383 965 q 537 890 494 926 q 606 803 581 854 q 632 688 632 751 q 615 589 632 629 q 570 521 597 549 q 508 474 542 493 q 443 439 475 454 q 359 386 387 411 q 330 311 330 361 l 330 262 l 222 262 l 222 311 q 238 392 222 358 q 279 451 254 427 q 334 492 304 475 q 393 524 364 510 q 445 551 421 538 q 485 582 468 564 q 513 625 503 600 q 524 688 524 650 q 508 765 524 732 q 464 820 492 798 q 400 856 436 843 q 323 869 364 868 q 261 861 294 869 q 199 836 228 852 q 152 794 171 819 q 132 734 132 770 q 164 666 132 692 q 237 640 196 640 q 263 645 249 642 q 289 661 278 648 q 242 686 261 667 q 222 733 222 705 q 247 785 222 764 q 302 807 271 806 q 358 786 338 807 q 396 742 383 768 q 410 688 410 715 q 393 628 410 657 l 393 627 q 330 567 370 587 q 239 545 290 546 l 237 545 q 168 556 201 545 q 106 586 134 567 q 58 630 78 604 q 31 686 39 656 l 29 686 q 24 736 24 708 q 52 835 24 793 q 124 907 81 878 q 222 950 168 936 q 323 965 275 965 m 282 193 q 351 165 322 193 q 380 97 380 138 q 351 28 380 57 q 282 0 322 0 q 212 28 241 0 q 182 97 183 56 q 212 165 183 138 q 282 193 241 193 z "},"@":{"ha":518,"x_min":0,"x_max":0,"o":""},"A":{"ha":939,"x_min":3,"x_max":900,"o":"m 886 903 l 888 926 l 888 16 l 886 39 l 900 0 l 753 0 l 766 39 l 765 21 l 765 207 l 379 207 l 288 56 l 288 56 l 269 0 l 106 0 l 163 75 l 161 75 l 621 835 l 288 835 q 123 707 123 835 q 129 659 123 684 q 145 613 134 633 q 176 580 157 593 q 222 567 195 567 q 265 578 248 567 q 293 608 282 590 q 264 664 264 633 q 288 715 264 694 q 346 736 311 736 l 347 736 q 403 716 378 736 q 428 664 428 696 l 428 656 q 410 585 427 618 q 366 526 393 551 q 301 487 338 501 q 222 473 264 473 q 135 491 175 473 q 65 540 94 509 q 19 614 36 571 q 3 707 3 657 q 26 814 3 770 q 90 887 50 859 q 180 929 129 916 q 288 942 232 942 l 900 942 l 886 903 m 765 835 l 758 835 l 443 315 l 765 315 l 765 835 z "},"B":{"ha":1055,"x_min":-11,"x_max":1042,"o":"m 879 511 q 1000 395 958 471 q 1042 232 1042 319 q 1021 110 1042 168 q 962 8 1000 52 q 869 -62 924 -36 q 747 -87 815 -87 q 635 -71 689 -87 q 533 -26 582 -54 q 441 38 485 1 q 357 115 397 75 l 351 121 q 322 148 339 134 q 286 175 304 163 q 247 196 267 187 q 207 204 227 204 q 136 176 161 204 q 110 103 110 147 q 130 37 110 64 q 195 9 150 9 q 189 35 189 21 q 214 92 189 68 q 275 115 239 115 q 336 92 311 115 q 361 35 361 68 q 359 21 361 28 q 355 7 358 14 l 354 4 q 328 -37 346 -18 q 288 -70 310 -56 q 240 -91 265 -83 q 193 -98 215 -98 q 111 -84 149 -98 q 47 -42 74 -69 q 4 21 20 -16 q -11 103 -11 58 q 6 188 -11 150 q 52 254 22 227 q 121 296 81 281 q 207 311 161 311 q 274 301 243 311 q 331 274 304 290 q 383 235 358 257 q 432 187 408 212 l 437 182 q 444 176 444 175 q 452 170 443 176 l 452 737 l 428 764 l 572 810 l 572 568 l 571 568 q 657 553 606 553 l 688 553 l 690 553 q 774 576 742 557 q 823 621 806 596 q 846 673 840 646 q 852 724 852 701 q 826 822 852 786 q 763 876 799 859 q 690 898 726 893 q 633 903 653 903 l 600 903 q 519 891 561 903 q 443 858 478 880 q 382 801 407 835 q 353 722 358 766 q 403 696 383 717 q 422 647 422 675 q 397 593 422 615 q 335 571 371 571 q 275 592 300 571 q 249 644 250 612 q 247 665 248 656 q 245 686 245 675 q 274 819 245 760 q 351 921 302 879 q 463 987 399 964 q 600 1010 528 1010 l 633 1010 q 774 990 711 1010 q 882 932 838 970 q 951 842 926 895 q 975 724 975 789 q 951 606 975 663 q 879 511 928 550 m 733 14 q 814 32 779 14 q 872 80 848 50 q 908 150 896 110 q 921 232 921 189 q 858 392 921 339 q 694 446 794 444 q 681 445 688 446 q 667 444 673 444 l 660 444 q 572 436 615 441 l 572 68 l 568 71 q 647 30 604 46 q 733 14 689 14 z "},"C":{"ha":863,"x_min":14,"x_max":872,"o":"m 771 211 l 872 150 l 846 106 q 701 -34 794 18 q 501 -87 608 -86 l 496 -87 q 300 -43 389 -87 q 148 75 211 1 q 49 244 85 149 q 14 440 14 339 l 14 441 q 49 640 14 545 q 149 810 85 736 q 302 927 212 884 q 500 971 392 971 q 607 954 555 971 q 699 905 659 937 q 763 827 739 873 q 787 720 787 781 q 771 628 787 671 q 725 552 754 585 q 655 501 696 519 q 564 482 614 482 l 562 482 q 459 502 504 482 q 386 557 414 521 q 349 652 349 608 q 372 717 349 692 q 437 742 396 742 q 498 720 473 742 q 524 667 524 699 q 494 610 524 635 q 562 589 519 589 l 564 589 q 609 601 590 589 q 641 631 628 612 q 660 673 653 650 q 667 720 667 696 q 617 827 665 790 q 498 864 568 864 q 348 828 415 864 q 233 732 281 791 q 160 596 186 672 q 135 441 135 521 l 135 440 q 161 289 136 364 q 233 154 186 214 q 346 58 279 94 q 496 20 412 21 l 500 20 q 639 59 574 21 q 742 160 704 97 l 771 211 z "},"D":{"ha":1173,"x_min":-16,"x_max":1152,"o":"m 661 1014 q 873 966 782 1014 q 1026 838 964 918 q 1119 655 1088 758 q 1152 439 1150 551 q 1131 241 1150 325 q 1080 97 1111 157 q 1013 -1 1050 37 q 937 -60 975 -39 q 864 -91 899 -82 q 803 -102 829 -100 q 704 -91 749 -102 q 620 -59 660 -79 q 544 -11 581 -39 q 467 50 507 17 q 413 94 441 71 q 354 135 385 117 q 291 166 323 154 q 225 178 258 178 q 143 153 179 178 q 106 79 107 127 q 131 15 107 41 q 196 -11 155 -11 q 229 -4 211 -11 q 220 32 220 18 q 244 85 221 64 q 298 107 267 107 q 351 87 329 107 q 376 40 374 68 l 376 32 q 375 17 376 22 q 354 -42 371 -17 q 313 -83 338 -66 q 257 -109 288 -100 q 196 -118 227 -118 q 116 -103 154 -118 q 49 -62 78 -89 q 2 0 20 -36 q -16 79 -16 36 q 5 166 -16 127 q 59 232 25 205 q 136 272 93 258 q 225 286 179 286 q 360 256 296 286 q 481 184 425 227 l 481 732 l 457 758 l 602 803 l 602 87 l 597 89 q 687 31 639 57 q 789 5 734 5 l 798 7 q 969 123 909 12 q 1029 439 1029 233 q 1008 608 1029 525 q 943 758 987 692 q 829 864 899 823 q 663 905 760 905 q 572 893 616 905 q 490 858 528 882 q 427 799 453 835 q 390 715 400 764 q 426 687 412 705 q 439 647 439 668 q 414 594 439 615 q 357 572 390 572 q 293 602 318 572 l 294 599 q 272 642 279 618 q 265 690 265 667 q 276 758 265 722 q 304 825 286 793 q 449 963 353 914 q 661 1014 546 1013 z "},"E":{"ha":1054,"x_min":-7,"x_max":1043,"o":"m 994 107 l 1043 123 l 1043 0 l 505 0 l 505 415 q 413 406 463 412 q 315 385 364 400 q 240 351 277 372 q 176 300 204 329 q 131 235 149 271 q 114 154 114 199 q 124 102 114 129 q 152 54 134 75 q 193 17 170 32 q 243 1 216 3 l 244 1 q 294 17 273 3 q 314 62 314 31 l 313 77 q 297 72 306 74 q 282 71 289 71 q 220 94 248 71 q 193 153 193 117 l 193 155 q 223 212 196 191 q 282 235 250 233 q 306 232 292 235 l 307 232 q 354 209 332 225 q 392 172 376 193 q 416 125 407 151 q 425 74 425 100 q 410 4 425 35 q 369 -48 395 -26 q 310 -82 343 -71 q 240 -94 277 -94 l 237 -94 q 141 -74 186 -94 q 64 -20 97 -54 q 12 59 31 14 q -7 154 -7 104 q 9 249 -7 201 q 57 338 25 296 q 148 424 96 390 q 259 479 200 458 q 381 510 318 500 q 505 524 444 521 l 505 942 l 1034 942 l 1034 818 l 986 835 l 628 835 l 628 526 q 758 530 696 526 q 804 535 782 532 q 847 547 827 539 l 860 553 q 836 610 836 579 q 863 668 838 643 q 924 693 888 693 q 978 675 956 693 l 977 675 q 1005 645 994 664 q 1015 603 1015 627 q 991 522 1015 555 q 930 468 966 489 q 851 437 895 447 q 768 424 807 427 q 697 420 730 421 q 628 419 664 419 l 628 107 l 994 107 z "},"F":{"ha":1061,"x_min":-7,"x_max":1071,"o":"m 522 942 l 1071 942 l 1071 818 l 1023 835 l 643 835 l 643 498 q 705 498 673 498 q 766 501 736 498 q 827 505 796 501 q 878 525 859 509 q 848 581 848 547 q 873 631 850 610 q 929 653 896 653 l 929 652 q 984 634 961 653 q 1010 587 1007 615 l 1010 586 q 1011 572 1011 582 q 997 508 1011 541 q 958 456 982 476 q 913 427 937 437 q 864 411 889 416 q 814 404 839 406 q 768 403 789 403 q 705 402 734 403 q 643 399 676 401 l 643 37 l 643 39 l 656 0 l 509 0 l 522 39 l 522 389 q 468 383 494 386 q 414 378 441 380 q 313 361 367 372 q 216 326 260 350 q 143 263 172 302 q 114 163 114 224 q 126 101 114 132 q 158 46 138 71 q 207 8 179 22 q 268 -7 235 -7 q 336 18 307 -7 q 366 83 366 43 l 366 86 q 363 103 366 94 q 285 66 336 66 q 220 90 249 66 q 191 153 191 114 q 201 196 191 179 q 230 224 212 214 q 270 239 248 235 q 313 243 292 243 q 438 200 390 243 q 486 92 486 158 q 469 8 486 46 q 422 -56 452 -29 q 352 -99 392 -83 q 269 -114 313 -114 l 268 -114 q 162 -92 212 -114 q 75 -32 113 -69 q 15 56 37 5 q -7 163 -7 107 q 8 251 -7 207 q 52 332 22 294 q 146 414 90 383 q 267 461 203 444 q 397 485 330 478 q 522 494 464 492 l 522 942 z "},"G":{"ha":885,"x_min":17,"x_max":871,"o":"m 628 489 q 724 467 679 489 q 801 408 768 444 q 852 326 833 372 q 871 229 871 279 q 838 92 871 151 q 751 -8 806 32 q 628 -67 697 -47 q 489 -87 559 -87 q 289 -42 376 -86 q 141 76 201 3 q 49 247 81 150 q 17 450 17 345 q 51 657 17 557 q 148 836 85 758 q 303 961 211 914 q 510 1008 395 1008 q 622 993 562 1008 q 729 947 681 978 q 810 873 778 917 q 842 771 842 829 q 812 705 842 732 q 742 677 783 677 q 672 705 701 677 q 642 771 643 732 q 653 812 643 791 q 684 846 664 832 q 603 887 647 873 q 511 901 558 901 q 389 879 449 901 q 286 815 329 856 l 285 814 q 176 655 214 751 q 138 450 138 558 q 160 293 138 368 l 160 290 q 205 183 174 232 q 282 99 237 135 q 380 42 326 62 q 489 20 433 21 q 583 32 536 20 q 666 70 629 45 q 726 135 703 96 q 749 228 749 175 q 740 286 749 257 q 712 336 730 314 q 670 371 694 358 q 614 385 646 385 q 558 367 587 385 q 593 288 593 334 q 584 247 593 267 q 561 213 575 228 q 526 190 546 199 q 484 180 505 180 q 405 212 437 180 q 372 288 372 243 q 398 369 372 332 q 462 433 424 407 q 544 474 500 460 q 628 489 589 489 z "},"H":{"ha":1108,"x_min":-5,"x_max":1069,"o":"m 431 0 l 443 37 l 443 501 l 446 500 l 435 511 q 367 576 400 546 q 298 623 334 606 q 260 637 281 632 q 218 643 239 643 q 142 610 170 643 q 115 528 115 576 q 138 464 115 494 q 196 433 160 433 q 220 439 210 433 l 227 443 q 212 484 212 464 q 237 535 212 515 q 292 555 261 555 q 338 542 318 555 q 367 505 358 529 l 367 507 q 371 484 371 494 q 367 461 371 473 q 344 408 361 432 q 304 368 328 385 q 253 341 281 351 q 196 332 225 332 q 120 347 157 332 q 56 390 83 363 q 11 453 28 416 q -5 529 -5 489 q 12 618 -5 578 q 60 688 29 659 q 131 733 90 717 q 220 750 172 750 q 339 724 283 750 q 443 659 395 699 l 443 904 l 431 942 l 578 942 l 566 904 l 566 543 l 562 546 q 622 488 591 515 q 681 450 653 460 q 746 439 717 439 q 851 470 804 440 q 924 551 897 500 l 936 575 l 935 574 l 935 904 l 922 942 l 1069 942 l 1057 905 l 1057 550 l 1051 553 l 1055 550 l 1055 549 l 1057 550 l 1057 37 l 1069 0 l 922 0 l 935 37 l 935 392 q 746 332 851 332 q 566 389 643 332 l 566 37 l 578 0 l 431 0 z "},"I":{"ha":639,"x_min":-3,"x_max":602,"o":"m 454 0 l 467 37 l 467 835 l 257 835 q 155 801 192 835 q 118 705 118 766 q 126 655 118 679 q 147 615 134 632 q 178 588 160 597 q 215 578 196 578 q 283 611 267 578 q 260 663 260 635 q 283 713 261 692 q 336 734 304 734 q 390 714 368 734 q 412 663 412 693 q 400 596 412 631 q 365 534 389 562 q 303 487 340 505 q 215 469 267 469 q 130 488 170 469 q 61 539 90 507 q 15 614 32 571 q -3 705 -3 657 q 18 806 -3 762 q 74 880 39 850 q 157 926 110 909 q 257 942 204 942 l 602 942 l 589 904 l 589 37 l 602 0 l 454 0 z "},"J":{"ha":637,"x_min":-7,"x_max":603,"o":"m 456 942 l 603 942 l 589 903 l 589 191 q 568 72 589 125 q 508 -18 547 20 q 414 -76 469 -56 q 292 -96 359 -96 q 170 -78 225 -96 q 76 -28 115 -61 q 15 50 36 4 q -7 153 -7 96 q 7 234 -7 197 q 47 298 21 271 q 110 341 74 326 q 192 357 146 357 q 234 347 214 357 q 269 322 254 338 q 292 286 283 307 q 301 243 301 265 q 272 178 301 204 q 203 153 243 153 q 157 164 178 153 q 123 196 136 176 q 114 153 114 178 q 135 77 114 106 q 184 34 155 49 q 242 15 212 20 q 292 11 272 11 q 347 17 317 11 q 405 42 378 24 q 450 97 432 61 q 468 191 468 132 l 468 904 l 456 942 z "},"K":{"ha":1086,"x_min":-7,"x_max":1100,"o":"m 1026 139 q 1079 118 1057 138 q 1100 71 1100 98 l 1100 68 q 1079 20 1100 40 q 1026 0 1057 0 q 946 21 982 0 q 881 76 909 43 q 830 149 852 110 q 789 222 807 187 q 716 339 755 285 q 623 439 677 393 l 621 440 l 632 440 q 622 435 627 437 q 611 431 616 433 l 618 433 l 618 26 l 616 39 l 631 0 l 484 0 l 497 39 l 496 21 l 496 390 q 453 380 475 385 q 410 370 431 375 q 313 345 364 359 q 217 306 261 330 q 143 242 172 281 q 114 146 114 204 q 123 94 114 121 q 148 46 132 68 q 187 11 164 25 q 237 -3 210 -3 l 240 -3 q 294 20 269 -3 q 319 72 319 43 q 318 86 319 82 q 292 72 307 78 q 260 66 277 66 q 197 92 224 68 q 171 149 171 115 q 203 215 171 192 q 275 239 235 239 q 340 225 310 239 q 393 190 371 212 q 428 138 415 168 q 441 72 441 107 q 424 1 441 33 q 379 -57 407 -32 q 316 -96 351 -82 q 243 -111 281 -110 l 239 -111 q 141 -90 186 -111 q 63 -33 96 -68 q 12 49 31 3 q -7 146 -7 96 q 29 283 -7 228 q 122 377 65 339 q 248 438 179 415 q 383 475 317 461 q 437 488 411 482 q 492 501 464 493 q 494 502 494 503 q 496 503 493 501 l 496 916 l 497 903 l 484 942 l 631 942 l 616 903 l 618 917 l 618 555 q 694 606 654 575 q 771 674 734 636 q 836 754 808 711 q 872 838 864 796 l 875 850 q 828 877 846 857 q 810 925 810 897 l 810 930 q 834 979 812 958 q 888 1002 856 999 l 893 1002 q 938 990 917 1002 q 968 958 958 979 q 991 871 991 924 q 967 760 991 815 q 904 656 942 705 q 819 566 865 607 q 729 496 772 525 q 822 391 782 447 q 896 272 863 335 q 939 195 916 235 q 961 158 950 175 q 985 127 972 140 q 1026 139 1003 139 z "},"L":{"ha":911,"x_min":-14,"x_max":904,"o":"m 682 419 q 768 401 728 419 q 839 352 808 383 q 887 280 869 321 q 904 193 904 239 q 878 83 904 132 q 810 -2 852 33 q 714 -57 768 -37 q 603 -77 660 -77 q 473 -52 536 -77 q 357 17 410 -26 q 284 -61 334 -35 q 180 -87 235 -87 l 179 -87 q 103 -73 139 -87 q 42 -32 68 -58 q 2 30 17 -5 q -14 106 -14 65 q -1 174 -14 142 q 36 230 12 205 q 92 268 60 254 q 161 282 123 282 q 269 253 218 282 l 269 285 l 269 708 q 289 827 269 774 q 345 919 309 880 q 433 979 380 958 q 551 1000 485 1000 q 761 933 685 1000 q 838 753 838 867 q 822 679 838 713 q 779 622 806 646 q 714 584 751 597 q 632 570 676 570 q 568 588 596 570 q 539 647 539 607 q 563 702 539 679 q 621 725 586 725 q 693 688 671 725 q 710 716 704 699 q 717 753 717 733 q 702 823 717 796 q 663 866 686 850 q 609 887 639 882 q 551 893 579 893 q 501 887 529 893 q 449 860 473 880 q 407 804 424 840 q 390 708 390 768 l 390 285 q 389 210 390 244 q 385 149 387 176 l 382 150 q 480 67 427 102 q 604 32 534 32 q 671 43 639 32 q 728 75 703 54 q 767 125 753 96 q 782 193 782 155 q 774 235 782 214 q 753 272 766 256 q 722 300 741 289 q 682 311 704 311 q 623 286 652 311 q 639 244 639 265 q 615 195 639 215 q 558 175 591 175 q 503 195 526 175 q 479 244 479 215 l 481 249 q 503 316 485 285 q 548 370 521 347 q 610 406 575 393 q 682 419 644 419 m 180 20 q 218 27 204 20 q 240 48 232 35 q 252 80 249 62 q 258 115 256 97 l 261 113 q 216 154 243 132 q 161 175 189 175 q 120 151 134 174 q 107 106 107 129 q 126 46 107 72 q 180 20 144 20 z "},"M":{"ha":1152,"x_min":-8,"x_max":1114,"o":"m 1100 903 l 1100 904 l 1100 31 l 1099 45 l 1114 0 l 966 0 l 983 54 l 979 33 l 979 770 l 768 0 l 700 0 l 485 772 l 485 138 q 466 46 485 87 q 414 -26 447 4 q 337 -73 382 -56 q 239 -90 292 -90 l 232 -90 q 135 -74 179 -90 q 58 -28 90 -57 q 9 42 26 1 q -8 132 -8 83 q 8 213 -8 172 q 52 287 24 254 q 117 339 79 319 q 199 359 154 359 q 243 354 220 359 q 287 337 267 349 q 321 308 307 326 q 335 265 335 290 q 308 208 334 232 q 245 183 282 183 q 193 199 216 183 q 161 240 170 215 q 126 197 139 225 q 113 132 113 170 q 123 78 113 100 q 151 42 134 56 q 190 23 168 29 q 232 17 211 17 l 239 17 q 329 50 294 17 q 363 138 363 83 l 363 911 l 364 903 l 350 942 l 575 942 l 564 907 l 734 291 l 900 907 l 889 942 l 1114 942 l 1100 903 z "},"N":{"ha":1011,"x_min":-9,"x_max":974,"o":"m 960 903 l 960 904 l 960 39 l 974 0 l 876 0 l 479 709 l 479 136 q 460 47 479 89 q 409 -25 441 5 q 332 -73 376 -56 q 235 -90 288 -90 q 138 -73 183 -90 q 60 -25 93 -56 q 9 47 28 5 q -9 136 -9 89 q 8 219 -9 180 q 54 287 25 258 q 123 332 83 315 q 205 349 163 349 q 298 321 265 349 q 332 257 332 293 q 306 197 332 221 q 243 172 279 172 q 193 188 215 172 q 161 227 171 203 q 125 192 138 215 q 111 140 113 168 l 111 136 q 146 52 111 85 q 235 18 182 18 q 322 52 288 18 q 357 136 357 85 l 357 905 l 345 942 l 481 942 l 839 301 l 839 904 l 839 903 l 827 942 l 974 942 l 960 903 z "},"O":{"ha":901,"x_min":18,"x_max":884,"o":"m 452 996 q 636 946 555 996 q 772 818 717 896 q 855 644 827 741 q 884 454 884 547 q 855 264 884 361 q 772 90 827 168 q 636 -38 717 12 q 452 -87 555 -87 q 265 -38 346 -87 q 130 90 184 12 q 47 264 75 168 q 18 454 18 361 q 47 644 18 547 q 130 818 75 741 q 265 946 184 896 q 452 996 346 996 m 450 14 q 570 48 513 14 q 670 142 627 83 q 737 282 712 202 q 762 453 762 362 q 737 622 762 543 q 670 761 712 701 q 570 856 627 821 q 450 893 513 891 q 330 859 385 890 l 331 859 q 281 800 308 839 q 253 709 254 762 l 253 708 q 259 659 253 686 q 276 606 264 631 q 306 564 287 581 q 352 547 326 547 q 367 548 359 547 q 382 553 375 550 q 374 575 376 564 q 370 595 372 585 q 402 662 372 634 q 473 689 431 689 q 543 662 513 689 q 573 595 572 634 q 550 534 573 563 q 495 485 528 506 q 427 452 463 465 q 362 440 391 440 q 235 480 290 440 q 151 584 180 520 q 137 454 137 523 l 137 453 q 162 282 137 362 q 229 142 186 202 q 328 48 271 83 q 450 14 385 14 z "},"P":{"ha":1060,"x_min":-4,"x_max":1063,"o":"m 699 1029 q 830 1012 765 1029 q 947 958 896 994 q 1031 865 999 921 q 1063 734 1063 810 q 1023 587 1063 656 q 908 479 983 518 q 772 435 844 446 q 629 421 700 425 l 629 39 l 642 0 l 494 0 l 509 39 l 509 414 q 382 399 450 410 q 255 363 314 389 q 156 291 196 338 q 117 170 117 244 q 126 112 117 140 q 154 61 136 83 q 197 25 171 39 q 254 11 222 11 q 312 31 285 11 q 339 83 339 50 q 338 106 339 100 q 271 79 311 79 q 210 102 235 79 q 183 158 184 125 q 194 198 183 182 q 222 227 205 215 q 260 244 239 239 q 301 250 281 250 q 366 237 336 250 q 415 201 395 224 q 449 147 436 178 q 461 82 461 117 q 443 9 461 41 q 396 -47 425 -24 q 329 -84 367 -71 q 254 -97 292 -97 q 153 -76 200 -97 q 71 -17 106 -54 q 16 68 36 20 q -4 171 -4 117 q 4 236 -4 203 q 76 375 24 322 q 200 459 129 428 q 352 504 271 490 q 509 521 433 517 l 509 742 l 485 768 l 629 814 l 629 528 l 637 528 q 743 539 689 532 q 841 568 796 547 q 913 628 885 589 q 942 732 942 667 q 921 820 942 783 q 865 879 900 856 q 788 912 831 901 q 699 922 745 922 q 608 911 654 922 q 521 876 561 900 q 453 817 481 852 q 418 733 425 782 q 465 704 446 725 q 484 656 484 684 q 456 599 484 623 q 392 575 429 575 q 343 588 363 575 q 312 620 323 600 q 295 663 300 639 q 290 713 290 688 q 301 783 290 749 q 332 847 313 817 q 376 904 351 878 q 431 951 401 930 q 699 1029 545 1029 z "},"Q":{"ha":900,"x_min":18,"x_max":974,"o":"m 890 -71 q 949 -93 925 -71 q 974 -147 974 -115 l 974 -151 q 959 -210 974 -183 q 922 -257 945 -237 q 869 -288 899 -277 q 811 -298 840 -298 l 808 -298 q 720 -276 758 -297 q 655 -222 682 -256 q 612 -147 628 -189 q 589 -60 596 -104 q 452 -87 522 -87 q 265 -38 346 -87 q 130 90 184 12 q 47 264 75 168 q 18 454 18 361 q 47 644 18 547 q 130 818 75 741 q 265 946 184 896 q 452 996 346 996 q 636 946 555 996 q 772 818 717 896 q 855 644 827 741 q 884 454 884 547 q 840 215 884 332 q 704 14 796 98 l 707 17 q 715 -41 710 -7 q 731 -107 720 -75 q 761 -162 742 -139 q 810 -186 779 -184 q 814 -185 812 -186 q 817 -184 815 -184 q 806 -147 806 -165 q 831 -92 806 -113 q 890 -71 857 -71 m 471 336 q 607 288 551 336 q 686 168 662 240 q 744 299 723 227 q 764 456 764 371 q 739 624 764 545 q 672 762 714 703 q 572 858 629 822 q 452 895 515 893 q 331 860 387 892 l 332 860 q 283 802 310 840 q 254 711 256 764 l 254 710 q 260 661 254 688 q 277 609 266 633 q 308 568 288 585 q 354 549 327 551 q 369 552 361 551 q 384 555 376 553 q 372 598 372 578 q 404 665 372 639 q 475 692 435 692 q 545 665 514 692 q 575 598 575 639 q 555 533 575 562 q 505 484 536 504 q 437 453 475 463 q 363 444 399 444 q 237 483 292 444 q 152 587 182 523 q 138 457 138 526 l 138 456 q 163 288 138 367 q 231 150 188 209 q 331 55 274 90 q 452 19 388 20 q 519 30 484 19 q 584 60 554 41 l 578 58 q 570 109 576 80 q 551 162 564 137 q 519 203 538 186 q 471 220 500 220 q 468 221 467 220 q 466 220 469 222 q 469 201 469 206 q 439 138 469 162 q 374 113 410 114 q 309 137 337 114 q 280 201 280 161 q 300 257 280 232 q 349 299 319 281 q 413 326 379 317 q 471 336 446 336 z "},"R":{"ha":1109,"x_min":-4,"x_max":1116,"o":"m 1069 58 l 1116 0 l 945 0 l 939 57 l 940 57 l 770 435 q 699 427 733 429 q 629 421 665 424 l 629 39 l 642 0 l 494 0 l 509 39 l 509 414 q 382 399 450 410 q 255 363 314 389 q 156 291 196 338 q 117 170 117 244 q 126 112 117 140 q 154 61 136 83 q 197 25 171 39 q 254 11 222 11 q 312 30 285 11 q 339 83 339 49 q 338 106 339 98 q 272 79 311 79 q 212 101 239 79 q 183 158 184 123 q 194 198 183 182 q 222 227 205 215 q 260 244 239 239 q 301 250 281 250 q 366 237 336 250 q 416 201 395 224 q 449 147 437 178 q 461 82 461 117 q 443 9 461 41 q 396 -47 425 -24 q 329 -84 367 -71 q 254 -97 292 -97 l 254 -97 q 153 -76 200 -97 q 71 -17 106 -54 q 16 68 36 20 q -4 171 -4 117 q 4 236 -4 203 q 76 375 24 322 q 200 459 129 428 q 352 504 271 490 q 509 521 433 517 l 509 742 l 510 739 l 485 768 l 629 814 l 629 528 l 637 528 q 743 539 689 532 q 841 568 796 547 q 913 628 885 589 q 942 732 942 667 q 921 820 942 783 q 865 879 900 856 q 788 912 831 901 q 699 922 745 922 q 608 911 654 922 q 521 876 561 900 q 453 817 481 852 q 418 733 425 782 q 465 704 446 725 q 484 656 484 684 q 456 599 484 623 q 392 575 429 575 q 343 588 363 575 q 312 620 323 600 q 295 663 300 639 q 290 713 290 688 q 301 783 290 749 q 332 847 313 817 q 376 904 351 878 q 431 951 401 930 q 699 1029 545 1029 q 830 1011 765 1029 q 947 957 896 993 q 1031 865 999 921 q 1063 732 1063 808 q 1015 572 1063 643 q 885 467 966 501 l 1069 58 z "},"S":{"ha":707,"x_min":5,"x_max":701,"o":"m 411 564 q 511 519 460 543 q 605 459 562 494 q 674 374 647 424 q 701 256 701 325 q 673 119 701 180 q 596 13 644 57 q 485 -57 549 -32 q 349 -82 421 -82 q 228 -63 289 -82 q 117 -8 167 -45 q 37 79 68 28 q 5 197 5 131 q 12 256 5 221 l 12 257 q 44 323 21 293 q 98 377 66 354 q 168 413 129 400 q 249 427 207 427 l 252 427 q 356 399 310 425 q 428 328 401 374 l 428 326 q 446 253 446 292 q 425 178 446 212 q 363 126 404 143 q 329 119 349 119 q 272 141 297 121 q 248 195 248 161 q 269 244 248 222 q 323 268 290 267 l 321 278 q 286 310 306 302 q 250 319 267 318 q 162 284 197 319 q 126 197 126 249 q 147 124 126 155 q 201 71 168 93 q 273 38 233 49 q 349 26 313 26 q 409 35 368 26 q 490 71 450 43 q 581 256 581 129 q 566 327 581 297 q 523 380 551 357 q 454 424 494 404 q 364 465 414 444 q 266 510 315 486 q 177 566 216 533 q 113 644 138 599 q 87 753 87 689 q 113 850 87 807 q 177 922 138 893 q 266 967 216 951 q 366 983 315 983 l 368 983 q 439 971 400 983 q 511 937 478 960 q 567 879 545 914 q 590 798 590 844 q 590 787 590 791 q 589 775 590 782 q 560 720 587 742 q 501 699 533 699 q 440 721 467 699 q 414 779 414 743 q 449 844 414 818 q 367 876 412 876 l 366 876 q 311 868 339 876 q 261 845 283 860 q 224 806 239 829 q 210 753 210 782 q 223 690 210 717 q 264 642 237 664 q 327 603 290 621 q 411 564 364 585 z "},"T":{"ha":945,"x_min":-9,"x_max":960,"o":"m 943 933 q 960 868 960 903 q 940 787 960 821 q 889 731 921 753 q 817 700 857 710 q 734 689 777 689 q 662 699 697 689 q 590 722 627 708 l 590 39 l 604 0 l 457 0 l 469 39 l 469 772 l 475 770 q 446 783 460 777 q 419 796 432 789 q 366 820 390 808 q 322 838 342 831 q 260 860 290 850 q 201 869 229 869 q 136 844 164 869 q 109 779 109 819 q 128 722 109 747 q 182 697 147 697 q 190 697 184 697 q 197 699 195 697 l 201 699 l 195 696 l 193 699 q 186 729 186 713 q 212 785 186 764 q 272 807 239 807 q 331 785 304 807 q 357 729 357 764 q 345 688 357 708 q 276 619 321 643 q 183 595 232 595 l 180 595 q 108 609 142 595 q 47 647 74 623 q 6 706 21 672 q -9 778 -9 739 q 8 855 -9 819 q 54 916 25 890 q 122 957 83 942 q 200 971 160 971 l 201 971 q 287 959 245 971 q 366 933 328 947 q 412 913 386 925 q 468 888 437 901 q 587 836 524 863 q 701 794 650 808 q 733 790 717 790 q 782 796 757 790 q 819 812 807 802 l 828 821 l 832 817 l 828 818 q 783 849 800 828 q 765 897 765 871 q 792 958 765 933 q 859 982 819 982 l 859 982 q 908 969 886 982 q 942 935 930 957 l 943 933 z "},"U":{"ha":1204,"x_min":-3,"x_max":1166,"o":"m 1153 29 l 1153 31 l 1166 0 l 1032 0 l 1032 82 q 922 1 986 29 q 775 -26 859 -26 q 655 -5 711 -26 q 557 54 599 16 q 491 144 515 92 q 467 258 467 196 l 467 835 l 257 835 q 155 801 192 835 q 118 705 118 766 q 126 655 118 679 q 147 615 134 632 q 178 587 160 597 q 215 576 196 576 q 283 611 267 576 q 260 663 260 635 q 283 713 261 692 q 336 734 304 734 q 390 714 368 734 q 412 663 412 693 q 400 596 412 631 q 365 534 389 562 q 303 487 340 505 q 215 469 267 469 q 130 488 170 469 q 61 539 90 507 q 15 614 32 571 q -3 705 -3 657 q 18 806 -3 762 q 74 880 39 850 q 157 926 110 909 q 257 942 204 942 l 602 942 l 587 903 l 589 916 l 589 258 q 603 185 589 220 q 644 125 618 151 q 703 85 669 100 q 775 71 737 71 q 964 173 896 71 q 1032 461 1032 275 l 1032 904 l 1032 903 l 1019 942 l 1166 942 l 1153 903 l 1153 904 l 1153 514 l 1153 29 z "},"V":{"ha":746,"x_min":-21,"x_max":746,"o":"m 623 1078 q 690 1058 665 1078 q 727 1009 714 1039 q 743 943 739 979 q 746 875 746 907 q 718 665 746 781 q 645 434 689 550 q 549 211 602 318 q 449 26 496 104 l 433 0 l 278 0 l 4 899 l 5 897 l -21 942 l 135 942 l 134 905 l 132 907 l 368 131 q 462 300 416 214 q 542 476 507 386 q 597 661 576 567 q 618 852 618 754 q 617 871 618 863 q 616 889 616 880 q 544 914 576 890 q 511 981 511 937 q 546 1052 511 1026 q 623 1078 581 1078 z "},"W":{"ha":1486,"x_min":-3,"x_max":1461,"o":"m 1136 1025 q 1254 1000 1204 1025 q 1340 933 1304 975 q 1400 837 1377 892 q 1437 722 1423 782 q 1455 603 1450 663 q 1461 490 1461 543 q 1325 24 1461 183 q 1212 -62 1272 -37 q 1109 -87 1152 -87 q 1008 -62 1057 -87 q 928 7 960 -37 q 838 -64 890 -41 q 722 -87 785 -87 q 617 -69 660 -87 q 546 -20 574 -50 q 504 47 518 9 q 482 121 489 85 q 473 190 475 158 q 472 243 472 222 l 472 725 q 431 866 472 823 q 296 909 390 909 q 224 895 257 909 q 168 856 192 880 q 131 796 144 831 q 118 720 118 761 l 118 708 q 151 603 118 642 q 241 562 184 564 q 298 587 271 562 q 262 652 262 615 q 289 708 264 685 q 350 732 314 732 q 412 708 386 732 q 439 652 437 685 q 424 576 439 611 q 382 513 408 541 q 319 471 355 486 q 241 456 283 456 q 141 474 186 456 q 64 527 96 493 q 15 608 32 561 q -3 708 -3 654 l -3 720 q 20 838 -3 783 q 82 931 43 892 q 177 994 122 971 q 296 1017 232 1017 q 446 989 387 1017 q 537 921 504 962 q 581 827 570 879 q 593 725 593 775 l 593 243 q 604 122 593 167 q 633 54 615 77 q 674 26 652 32 q 722 20 697 20 q 802 42 771 20 q 849 99 832 64 q 871 178 865 135 q 878 262 878 221 l 878 688 l 1000 688 l 1000 199 q 1013 103 1000 139 q 1042 48 1025 66 q 1079 25 1060 31 q 1109 20 1097 20 q 1160 35 1125 20 q 1234 94 1194 50 q 1312 255 1286 155 q 1339 490 1339 355 q 1316 718 1339 633 q 1261 846 1293 802 q 1194 904 1229 890 q 1136 918 1160 918 q 1103 908 1118 916 q 1103 900 1103 904 q 1104 892 1104 896 q 1080 840 1104 861 q 1021 818 1055 818 q 963 840 987 818 q 939 892 939 861 q 958 950 939 925 q 1006 992 977 975 q 1069 1017 1035 1008 q 1136 1025 1104 1025 z "},"X":{"ha":950,"x_min":-16,"x_max":971,"o":"m 926 47 l 914 65 l 971 0 l 794 0 l 789 61 l 791 41 l 589 393 l 574 361 q 535 284 553 318 q 502 220 518 250 q 470 158 486 189 q 431 86 453 126 l 418 62 q 377 -3 399 28 q 328 -56 355 -33 q 268 -91 301 -78 q 191 -106 235 -104 l 187 -106 q 113 -91 149 -106 q 48 -52 77 -77 q 2 7 20 -26 q -16 82 -16 41 q 15 177 -16 131 q 94 248 45 222 l 98 240 l 85 241 q 129 254 104 254 q 189 233 163 254 q 215 175 215 211 q 190 117 215 139 q 129 96 165 96 q 118 97 123 97 q 109 98 113 97 q 106 83 106 90 q 130 26 106 50 q 187 1 154 1 q 253 28 222 1 q 284 66 269 41 q 311 114 298 90 q 362 210 338 163 q 412 306 387 257 l 505 482 l 278 900 l 290 882 l 227 937 l 415 937 l 433 869 l 427 890 l 599 558 l 757 890 l 754 871 l 760 937 l 946 937 l 882 868 l 890 880 l 682 467 l 926 47 z "},"Y":{"ha":939,"x_min":-17,"x_max":970,"o":"m 970 939 l 916 876 l 657 416 l 659 418 l 659 39 l 671 0 l 524 0 l 538 39 l 536 410 l 538 408 l 411 635 q 361 731 386 684 q 310 825 336 778 q 288 864 300 844 q 262 900 277 884 q 229 927 248 917 q 186 937 210 937 q 129 913 153 937 q 104 856 104 889 q 107 840 104 848 q 117 842 111 842 q 127 843 122 842 q 188 822 163 843 q 214 764 214 800 q 188 707 214 729 q 127 685 161 685 q 83 697 103 685 q 10 767 37 724 q -17 857 -17 810 q 1 931 -17 897 q 46 990 18 965 q 111 1030 74 1015 q 186 1044 147 1044 l 189 1044 q 267 1031 233 1044 q 327 995 300 1018 q 376 943 354 972 q 416 876 397 913 q 478 763 444 827 q 543 646 513 700 q 582 576 568 600 q 597 546 595 553 l 789 896 l 793 939 l 970 939 z "},"Z":{"ha":743,"x_min":-5,"x_max":737,"o":"m 546 340 q 617 329 583 340 q 679 294 652 317 q 721 240 705 272 q 737 168 737 208 q 706 48 737 97 q 626 -33 675 -1 q 517 -78 578 -64 q 395 -93 456 -93 q 286 -83 336 -93 q 204 -58 236 -74 q 144 -34 172 -43 q 96 -21 115 -25 q 53 -14 72 -16 l -5 -11 l -5 72 l 557 825 l 87 825 l 22 798 l 22 933 l 697 933 l 697 818 q 431 454 549 615 q 331 320 380 386 q 243 201 282 254 q 179 114 204 147 q 151 77 154 81 q 205 60 179 69 q 256 39 232 50 q 314 22 277 29 q 396 16 351 16 q 472 22 433 16 q 543 46 511 29 q 596 94 575 64 q 616 168 616 123 q 596 217 616 200 q 546 233 576 233 q 518 228 530 233 q 555 164 555 204 q 531 107 554 131 q 472 83 507 83 q 433 93 452 83 q 402 117 415 102 q 381 152 389 132 q 374 191 374 171 q 388 255 374 227 q 426 302 401 283 q 481 331 450 321 q 546 340 513 340 z "},"[":{"ha":354,"x_min":50,"x_max":306,"o":"m 306 1013 l 306 908 l 160 908 l 160 -47 l 306 -47 l 306 -151 l 50 -151 l 50 1013 l 306 1013 z "},"\\":{"ha":503,"x_min":24,"x_max":504,"o":"m 504 -151 l 390 -151 l 24 1013 l 139 1013 l 504 -151 z "},"]":{"ha":354,"x_min":49,"x_max":304,"o":"m 304 1013 l 304 -151 l 49 -151 l 49 -47 l 195 -47 l 195 908 l 49 908 l 49 1013 l 304 1013 z "},"^":{"ha":518,"x_min":0,"x_max":0,"o":""},"_":{"ha":406,"x_min":22,"x_max":385,"o":"m 22 -161 l 22 -56 l 385 -56 l 385 -161 l 22 -161 z "},"`":{"ha":518,"x_min":0,"x_max":0,"o":""},"a":{"ha":574,"x_min":18,"x_max":543,"o":"m 543 0 l 416 0 l 416 77 q 334 14 380 35 q 234 -7 287 -7 l 231 -7 q 148 9 186 -7 q 80 54 109 26 q 34 120 51 82 q 18 200 18 157 q 26 260 18 231 q 52 314 35 290 q 92 359 68 339 q 145 391 116 378 l 166 398 q 242 424 203 410 q 316 455 281 438 q 378 490 351 471 q 415 531 404 509 q 408 555 414 543 q 390 577 403 567 q 357 594 378 587 q 302 600 336 600 q 238 591 261 600 q 204 569 216 583 q 214 530 214 547 q 207 502 214 515 q 190 478 201 488 q 164 463 179 469 q 134 458 150 458 q 101 463 116 458 q 75 478 86 469 q 57 502 64 488 q 51 530 51 515 q 68 603 51 570 q 117 657 85 635 q 196 692 149 680 q 302 704 243 704 q 471 653 412 704 q 530 509 530 603 l 530 37 l 543 0 m 416 384 q 359 362 387 373 q 301 339 331 351 q 246 317 273 328 q 191 295 219 306 q 148 258 164 283 q 131 200 131 233 q 138 161 131 179 q 159 129 146 142 q 191 106 172 115 q 230 98 209 98 l 234 98 q 310 112 276 98 q 367 154 343 125 q 404 227 391 182 q 416 335 416 272 l 416 384 z "},"b":{"ha":629,"x_min":19,"x_max":613,"o":"m 361 684 q 473 653 426 684 q 551 575 520 623 q 598 470 583 528 q 613 358 613 412 q 586 212 613 280 q 510 95 559 144 q 394 16 461 45 q 246 -12 326 -12 q 80 18 165 -12 l 42 33 l 42 878 l 43 878 l 19 905 l 157 947 l 157 106 q 198 96 178 99 q 239 93 218 93 q 346 113 298 93 q 428 167 394 132 q 480 251 462 202 q 498 358 498 300 q 495 402 498 378 q 486 449 492 425 q 469 496 479 473 q 444 536 458 518 q 409 565 429 553 q 363 578 389 576 q 368 552 368 566 q 361 519 368 534 q 342 493 355 504 q 314 475 330 481 q 280 469 298 469 q 246 476 262 469 q 218 495 230 484 q 200 522 206 507 q 193 553 193 537 q 210 607 193 583 q 253 648 227 631 q 307 674 278 665 q 361 684 336 684 z "},"c":{"ha":559,"x_min":16,"x_max":658,"o":"m 658 166 q 593 93 633 131 q 515 35 553 54 q 436 4 477 15 q 351 -7 394 -6 q 219 22 280 -5 q 113 96 158 49 q 42 207 68 143 q 16 343 16 270 q 39 485 16 420 q 104 595 62 549 q 203 666 146 641 q 331 692 261 692 l 332 692 q 408 683 370 692 q 475 656 446 675 q 524 606 505 637 q 543 530 543 575 q 536 492 543 509 q 517 462 529 475 q 488 441 505 449 q 451 434 471 434 q 415 441 432 434 q 386 459 399 448 q 366 487 373 471 q 358 522 358 503 q 383 581 358 556 q 358 587 371 585 q 332 589 346 589 l 331 589 q 240 568 278 589 q 176 512 201 547 q 139 433 151 477 q 127 343 127 389 q 144 244 127 290 q 191 165 161 199 q 261 114 220 132 q 351 96 302 96 q 421 107 387 96 q 485 139 455 118 q 551 204 515 161 q 611 284 587 248 l 658 166 z "},"d":{"ha":629,"x_min":20,"x_max":597,"o":"m 597 0 l 471 0 l 471 68 q 396 6 439 30 q 298 -17 353 -17 q 172 16 224 -17 q 86 100 120 48 q 36 216 52 152 q 20 343 20 280 q 39 483 20 420 q 91 591 58 546 q 172 660 125 635 q 274 684 218 684 q 330 674 300 684 q 385 648 360 665 q 427 608 410 631 q 443 555 443 584 q 437 522 443 538 q 419 492 431 505 q 392 472 408 479 q 355 465 376 465 q 321 472 336 465 q 293 491 305 479 q 274 519 281 503 q 267 553 267 535 l 267 562 q 267 569 267 566 q 269 576 267 573 q 209 552 234 574 q 166 495 183 530 q 142 419 150 460 q 134 338 134 378 q 142 255 134 299 q 169 175 150 212 q 220 114 189 138 q 298 90 252 90 q 360 106 332 90 q 412 148 389 121 q 450 209 435 174 q 471 283 465 244 l 471 876 l 447 905 l 584 947 l 584 38 l 597 0 z "},"e":{"ha":675,"x_min":14,"x_max":665,"o":"m 578 351 q 612 344 596 351 q 640 327 628 338 q 658 301 652 315 q 665 269 665 286 q 635 157 663 208 q 563 70 607 106 q 464 13 519 33 q 355 -7 409 -7 q 220 19 282 -7 q 112 92 158 45 q 40 201 66 138 q 14 338 14 264 q 38 478 14 414 q 103 588 61 542 q 204 659 146 633 q 334 684 263 684 q 610 524 507 684 l 638 481 l 162 201 q 244 124 194 154 q 355 94 294 94 q 407 101 379 94 q 460 122 434 109 q 508 155 486 136 q 544 200 530 175 q 508 228 520 208 q 496 272 496 249 q 517 329 496 308 q 574 351 538 349 l 578 351 m 127 338 q 129 303 127 323 l 484 511 q 334 582 420 582 q 242 561 281 582 q 177 505 203 540 q 139 427 152 471 q 127 338 127 383 z "},"f":{"ha":394,"x_min":-5,"x_max":476,"o":"m 287 939 q 353 931 319 939 q 414 907 387 924 q 459 863 441 890 q 476 800 476 837 q 473 774 476 786 q 462 752 469 762 q 441 736 454 742 q 410 729 429 730 l 408 729 q 380 734 393 729 q 357 747 367 739 q 341 767 347 755 q 335 793 335 779 q 338 810 335 800 l 338 814 q 332 827 338 823 q 317 835 326 832 q 301 839 309 838 q 287 840 292 840 q 263 836 277 840 q 239 823 250 832 q 219 798 227 814 q 211 756 211 781 l 211 686 l 415 686 l 393 590 l 211 590 l 211 38 l 224 0 l 85 0 l 98 38 l 98 590 l -5 590 l 18 686 l 98 686 l 98 756 q 112 827 98 794 q 152 885 127 861 q 212 925 178 910 q 286 939 246 939 l 287 939 z "},"g":{"ha":633,"x_min":22,"x_max":602,"o":"m 602 661 l 588 623 l 588 -19 q 565 -133 588 -85 q 504 -213 542 -181 q 417 -260 465 -245 q 317 -276 368 -276 l 315 -276 q 254 -271 286 -276 q 191 -254 222 -265 q 134 -227 161 -243 q 86 -189 106 -211 q 53 -138 65 -166 q 41 -76 41 -110 q 45 -41 41 -58 q 61 -11 50 -24 q 87 9 71 2 q 126 17 104 17 q 162 10 146 17 q 191 -8 179 3 q 211 -35 203 -20 q 218 -68 218 -51 q 191 -130 218 -103 q 225 -151 207 -143 q 261 -163 243 -159 q 294 -168 279 -167 q 317 -170 309 -170 q 342 -168 327 -170 q 375 -161 357 -166 q 410 -146 393 -156 q 442 -120 428 -136 q 466 -78 456 -103 q 475 -19 475 -54 l 475 336 q 462 425 475 382 q 426 503 449 469 q 370 557 403 536 q 298 578 338 578 q 219 558 250 578 q 169 508 187 538 q 143 441 151 477 q 136 372 136 405 q 141 291 136 332 q 160 216 146 250 q 198 160 174 182 q 260 134 222 137 q 256 156 256 145 q 263 191 256 174 q 283 219 271 207 q 311 239 295 232 q 345 246 327 246 q 382 239 366 246 q 410 219 398 231 q 427 190 421 206 q 433 156 433 174 q 417 102 433 125 q 376 61 401 78 q 321 36 351 45 q 264 28 291 28 q 160 51 205 28 q 84 117 115 73 q 38 225 54 161 q 22 372 22 290 q 38 490 22 433 q 89 589 54 546 q 175 658 123 632 q 298 684 227 684 q 399 659 355 684 q 475 595 442 634 l 475 661 l 602 661 z "},"h":{"ha":615,"x_min":22,"x_max":589,"o":"m 589 0 l 448 0 l 463 38 q 461 250 462 144 q 461 463 461 355 q 452 506 460 486 q 429 542 444 526 q 394 568 414 558 q 351 578 374 577 q 274 563 309 576 q 212 521 239 549 q 159 338 159 465 l 158 38 l 172 0 l 33 0 l 45 38 l 45 877 l 46 877 l 22 905 l 159 947 l 159 579 q 240 659 191 633 q 351 684 288 684 q 438 666 397 684 q 510 618 479 648 q 558 548 541 589 q 576 463 576 508 l 576 37 l 589 0 z "},"i":{"ha":206,"x_min":20,"x_max":178,"o":"m 100 732 q 69 738 83 732 q 44 755 54 745 q 27 781 33 766 q 20 812 20 795 q 27 843 20 828 q 44 868 33 857 q 69 885 54 879 q 100 891 83 891 q 130 885 116 891 q 155 868 144 879 q 172 843 166 857 q 178 812 178 828 q 172 781 178 795 q 155 755 166 766 q 130 738 144 745 q 100 732 116 732 m 161 38 l 174 0 l 35 0 l 48 38 l 48 616 l 24 642 l 161 686 l 161 38 z "},"j":{"ha":204,"x_min":-241,"x_max":178,"o":"m 98 732 q 67 738 81 732 q 42 755 53 745 q 26 781 32 766 q 20 812 20 795 q 26 843 20 828 q 42 868 32 857 q 67 885 53 879 q 98 891 81 891 q 129 885 114 891 q 154 868 143 879 q 171 843 165 857 q 178 812 178 828 q 171 781 178 795 q 154 755 165 766 q 129 738 143 745 q 98 732 114 732 m 22 642 l 161 686 l 161 -19 q 107 -214 161 -152 q -51 -276 53 -276 q -102 -272 -74 -276 q -158 -255 -131 -267 q -207 -222 -185 -243 q -238 -168 -229 -201 q -240 -159 -240 -163 q -241 -152 -241 -155 l -241 -145 q -235 -115 -241 -129 q -218 -91 -229 -101 q -193 -75 -207 -81 q -163 -69 -179 -69 q -133 -75 -147 -69 q -107 -91 -118 -81 q -91 -115 -97 -101 q -85 -145 -85 -129 q -92 -175 -85 -163 q -72 -181 -81 -179 q -51 -182 -62 -182 l -50 -182 q -19 -177 -35 -182 q 13 -153 -2 -171 q 37 -103 27 -136 q 46 -19 46 -71 l 46 616 l 22 642 z "},"k":{"ha":587,"x_min":22,"x_max":599,"o":"m 599 0 l 419 0 l 408 41 l 197 298 q 178 293 188 296 q 159 289 168 290 l 158 38 l 172 0 l 33 0 l 45 38 l 45 877 l 46 877 l 22 905 l 159 947 l 159 399 q 208 417 180 404 q 267 451 237 430 q 326 500 297 471 q 378 566 355 529 q 349 627 349 591 q 355 661 349 646 q 374 687 362 675 q 402 704 386 698 q 435 710 418 710 q 469 704 453 710 q 496 686 484 697 q 515 660 508 675 q 522 627 522 645 q 519 606 522 612 l 519 605 q 484 529 507 567 q 433 456 462 491 q 371 393 405 422 q 302 345 338 364 l 541 54 l 599 0 z "},"l":{"ha":203,"x_min":22,"x_max":172,"o":"m 172 0 l 33 0 l 45 38 l 45 877 l 46 877 l 22 905 l 159 947 l 158 38 l 172 0 z "},"m":{"ha":1033,"x_min":24,"x_max":1006,"o":"m 1006 0 l 865 0 l 878 38 l 878 463 q 868 506 878 485 q 844 542 859 526 q 809 568 829 558 q 768 578 789 577 q 691 562 726 576 q 631 518 656 547 q 592 446 606 490 q 578 339 578 401 l 578 37 l 591 0 l 451 0 l 465 38 q 464 250 465 144 q 464 463 464 355 q 455 506 463 486 q 431 542 446 526 q 397 568 416 558 q 353 578 377 577 q 275 562 311 576 q 214 520 240 547 q 161 339 161 465 l 161 38 l 174 0 l 35 0 l 48 38 l 48 616 l 24 642 l 161 686 l 161 579 q 242 658 194 633 q 353 684 291 684 q 420 674 388 684 q 478 647 452 665 q 526 604 505 629 q 559 549 547 579 q 645 651 592 618 q 768 684 697 684 q 854 666 814 684 q 926 618 895 648 q 975 548 957 589 q 993 463 993 508 l 993 38 l 1006 0 z "},"n":{"ha":619,"x_min":26,"x_max":593,"o":"m 593 0 l 452 0 l 467 38 q 466 250 466 144 q 465 463 465 355 q 456 506 465 486 q 433 542 448 526 q 398 568 418 558 q 355 578 378 577 q 277 563 312 576 q 216 521 241 549 q 163 339 163 465 l 162 38 l 176 0 l 37 0 l 50 38 l 50 616 l 26 642 l 163 686 l 163 579 q 244 658 195 633 q 355 684 292 684 q 443 666 401 684 q 514 618 484 648 q 562 548 545 589 q 580 463 580 508 l 580 37 l 593 0 z "},"o":{"ha":675,"x_min":16,"x_max":658,"o":"m 337 684 q 471 657 412 684 q 572 583 531 630 q 636 473 614 536 q 658 338 658 410 q 636 203 658 266 q 572 94 614 140 q 471 20 531 47 q 337 -7 412 -7 q 202 20 262 -7 q 101 94 142 47 q 38 203 60 140 q 16 338 16 266 q 38 473 16 410 q 101 583 60 536 q 202 657 142 630 q 337 684 262 684 m 337 94 q 430 114 391 94 q 494 167 469 134 q 532 245 519 201 q 544 338 544 289 q 532 431 544 387 q 494 508 519 475 q 430 561 469 541 q 337 581 391 581 q 244 561 283 581 q 180 508 205 541 q 142 431 155 475 q 130 338 130 387 q 142 244 130 289 q 180 167 155 200 q 244 114 205 134 q 337 94 283 94 z "},"p":{"ha":629,"x_min":24,"x_max":609,"o":"m 332 684 q 419 669 380 684 q 489 629 458 654 q 542 571 519 604 q 580 498 565 537 q 602 417 595 459 q 609 334 609 375 q 590 193 609 257 q 538 82 572 129 q 457 10 504 36 q 355 -16 411 -16 q 300 -7 330 -16 q 245 18 271 1 q 203 57 220 34 q 186 111 186 81 q 192 143 186 127 q 210 171 198 159 q 237 192 221 184 q 274 199 254 199 q 309 192 293 199 q 338 173 326 185 q 357 145 350 161 q 363 111 363 129 q 359 87 363 100 q 420 115 395 91 q 463 176 446 140 q 488 254 479 212 q 496 338 496 297 q 488 418 496 376 q 460 496 479 460 q 410 556 441 532 q 332 579 378 579 q 272 565 300 579 q 221 528 243 551 q 184 472 199 504 q 161 404 169 440 l 161 -224 l 174 -262 l 35 -262 l 48 -224 l 48 616 l 24 642 l 161 686 l 161 604 q 235 662 193 640 q 332 684 277 684 z "},"q":{"ha":623,"x_min":20,"x_max":591,"o":"m 578 -224 l 591 -262 l 451 -262 l 465 -224 l 465 60 q 392 5 433 26 q 298 -16 351 -16 q 173 16 225 -16 q 87 97 121 47 q 37 210 53 147 q 20 335 20 273 q 40 474 20 410 q 93 584 59 537 q 173 656 127 630 q 274 684 220 682 q 329 675 300 684 q 384 650 359 667 q 426 611 409 634 q 443 557 443 587 q 437 525 443 541 q 419 497 431 509 q 392 476 408 484 q 355 469 376 469 q 321 476 336 469 q 293 495 305 483 q 274 523 281 507 q 267 556 267 538 l 267 565 q 267 572 267 568 q 269 579 267 576 q 209 553 234 577 q 166 493 183 529 q 142 414 150 457 q 134 330 134 370 q 142 249 134 292 q 170 170 151 206 q 220 111 189 134 q 296 87 251 87 q 358 102 331 87 q 407 139 386 116 q 443 191 428 162 q 465 250 457 220 l 465 661 l 591 661 l 578 623 l 578 -224 z "},"r":{"ha":414,"x_min":26,"x_max":425,"o":"m 315 700 q 361 693 340 700 q 395 675 381 686 q 417 648 410 663 q 425 614 425 632 q 419 581 425 596 q 401 553 412 565 q 375 534 390 541 q 342 528 359 528 q 317 533 329 528 q 295 548 304 538 q 278 569 285 557 q 267 594 271 581 q 220 564 240 588 q 188 506 201 541 q 169 428 175 471 q 163 339 163 385 l 162 38 l 176 0 l 37 0 l 50 38 l 50 616 l 26 642 l 163 686 l 163 581 q 230 668 193 636 q 315 700 266 700 z "},"s":{"ha":505,"x_min":18,"x_max":489,"o":"m 278 409 q 353 374 315 394 q 421 328 391 355 q 470 266 451 301 q 489 184 489 231 q 467 104 489 140 q 411 45 446 69 q 335 7 377 20 q 252 -5 293 -5 q 168 8 210 -5 q 93 46 126 21 q 38 107 59 71 q 18 189 18 143 q 23 228 18 210 q 40 260 28 246 q 67 281 51 273 q 107 290 84 290 l 110 290 q 141 282 126 289 q 167 265 156 276 q 185 240 178 254 q 191 208 191 225 q 152 141 191 164 q 197 109 169 119 q 252 98 226 98 q 292 104 271 98 q 332 121 314 110 q 363 148 351 132 q 375 184 375 163 q 360 232 375 211 q 324 268 346 252 q 278 294 302 283 q 233 312 253 304 q 169 341 202 324 q 107 380 135 357 q 60 432 79 402 q 42 500 42 461 q 61 582 42 547 q 111 639 80 616 q 182 673 142 662 q 264 684 222 684 q 336 672 300 684 q 401 640 372 661 q 447 588 429 619 q 465 517 465 557 q 460 479 465 499 q 429 441 450 455 q 382 427 408 427 l 381 427 q 353 432 367 427 q 327 447 338 437 q 308 469 315 456 q 301 497 301 482 q 311 532 301 513 q 336 566 321 551 q 254 590 300 590 l 252 590 q 181 569 205 590 q 156 500 156 549 q 163 475 156 484 q 178 461 171 465 q 223 432 197 444 q 278 409 248 420 z "},"t":{"ha":440,"x_min":-2,"x_max":432,"o":"m 432 168 q 417 94 432 126 q 378 39 402 62 q 322 5 353 17 q 256 -7 290 -7 q 191 5 222 -7 q 137 39 160 18 q 99 89 113 60 q 85 151 85 117 l 85 590 l -2 590 l 20 686 l 85 686 l 85 827 l 60 857 l 199 899 l 199 686 l 418 686 l 396 590 l 199 590 l 199 151 q 204 128 199 138 q 218 110 210 117 q 237 98 227 102 q 256 93 247 94 q 300 115 283 96 q 260 183 260 140 q 267 216 260 201 q 286 241 274 231 q 313 258 297 252 q 345 264 328 264 q 378 258 362 264 q 406 241 393 252 q 425 216 418 231 q 432 183 432 201 l 432 168 z "},"u":{"ha":600,"x_min":20,"x_max":570,"o":"m 570 0 l 429 0 l 441 38 l 441 88 q 365 16 411 38 q 258 -5 319 -5 q 172 11 211 -5 q 104 57 132 28 q 59 125 75 86 q 43 210 43 165 l 43 611 l 45 611 l 20 642 l 157 686 l 157 210 q 164 166 157 186 q 184 132 172 146 q 216 109 197 117 q 258 101 235 101 q 391 157 343 101 q 441 334 439 212 l 441 616 l 418 642 l 556 686 l 556 38 l 570 0 z "},"v":{"ha":590,"x_min":-17,"x_max":583,"o":"m 581 671 q 583 656 583 664 q 583 641 583 648 l 583 626 q 564 468 582 547 q 517 311 547 388 q 448 160 487 233 q 364 22 408 87 l 349 0 l 229 0 l 20 604 l -17 661 l 136 661 l 137 613 l 302 132 q 354 224 327 172 q 406 336 382 277 q 448 456 430 395 q 471 576 466 518 q 438 587 454 579 q 412 607 423 595 q 395 634 401 618 q 389 666 389 649 l 389 667 q 397 701 389 686 q 416 729 404 717 q 445 749 429 741 q 481 758 462 757 l 486 758 q 520 752 504 758 q 549 735 536 746 q 570 709 562 724 q 581 677 578 694 l 581 671 z "},"w":{"ha":891,"x_min":-16,"x_max":878,"o":"m 764 758 q 821 740 798 758 q 856 694 843 722 q 873 631 868 666 q 878 563 878 597 q 869 457 878 509 q 847 354 861 405 q 815 252 833 302 q 779 151 798 201 q 753 88 767 119 q 722 25 740 56 l 707 0 l 589 0 l 439 458 l 294 0 l 156 0 l 7 635 l -16 686 l 125 686 l 123 644 l 232 177 l 404 686 l 479 686 l 661 147 q 694 223 675 178 q 730 318 713 267 q 759 421 747 368 q 770 522 770 474 q 764 577 770 554 l 763 576 q 726 584 744 576 q 696 603 709 591 q 675 632 683 615 q 667 667 667 648 q 675 704 667 688 q 695 733 682 721 q 725 751 708 745 q 762 758 743 758 l 764 758 z "},"x":{"ha":642,"x_min":-18,"x_max":651,"o":"m 651 0 l 484 0 l 479 41 l 328 285 l 171 52 l 157 0 l -18 0 l 32 47 l 31 47 l 249 366 l 79 606 l 79 606 l 17 661 l 197 661 l 210 613 l 210 614 l 340 431 l 461 614 l 464 661 l 643 661 l 581 592 l 419 350 l 596 64 l 651 0 z "},"y":{"ha":631,"x_min":13,"x_max":588,"o":"m 588 686 l 588 -19 q 567 -123 588 -76 q 509 -204 547 -170 q 418 -257 471 -238 q 300 -276 365 -276 q 242 -270 273 -276 q 178 -253 210 -264 q 116 -224 146 -241 q 63 -185 86 -208 q 27 -135 41 -163 q 13 -75 13 -107 q 20 -40 13 -56 q 40 -13 27 -24 q 69 4 52 -2 q 104 11 85 11 q 139 4 123 11 q 167 -13 155 -2 q 186 -40 179 -24 q 193 -75 193 -56 q 170 -134 193 -108 q 202 -155 184 -146 q 240 -168 221 -163 q 275 -176 258 -174 q 300 -178 292 -178 q 327 -176 311 -178 q 363 -168 344 -174 q 402 -151 382 -162 q 438 -122 422 -140 q 464 -79 454 -104 q 473 -19 473 -54 l 473 117 q 391 40 441 64 q 279 17 341 17 q 190 33 233 17 q 115 79 147 50 q 63 147 82 108 q 43 232 43 186 l 43 610 l 20 642 l 157 686 l 157 232 q 168 188 157 208 q 195 153 178 168 q 234 130 212 138 q 279 122 256 122 q 359 136 323 122 q 420 178 395 149 q 459 252 446 207 q 473 361 473 298 l 473 616 l 450 642 l 588 686 z "},"z":{"ha":602,"x_min":10,"x_max":595,"o":"m 505 260 q 548 249 531 260 q 576 218 566 237 q 590 178 586 200 q 595 134 595 155 q 575 46 595 83 q 523 -13 556 10 q 447 -47 490 -37 q 356 -58 404 -58 l 355 -58 q 291 -54 322 -58 q 229 -39 260 -50 q 173 -23 201 -30 q 120 -11 144 -16 q 79 -3 96 -5 q 60 0 63 0 l 10 7 l 10 80 l 365 554 l 74 554 l 16 522 l 16 661 l 519 661 l 519 580 l 155 91 q 183 81 168 87 q 214 68 199 75 q 283 40 250 50 q 355 31 315 31 q 396 34 375 31 q 436 47 418 38 q 468 71 455 56 q 485 109 481 86 q 441 135 458 116 q 422 180 424 155 l 422 183 q 429 214 422 199 q 447 238 436 228 q 473 254 458 248 q 505 260 488 260 z "},"{":{"ha":518,"x_min":0,"x_max":0,"o":""},"|":{"ha":210,"x_min":50,"x_max":160,"o":"m 50 -151 l 50 1013 l 160 1013 l 160 -151 l 50 -151 z "},"}":{"ha":518,"x_min":0,"x_max":0,"o":""},"~":{"ha":4500,"x_min":68,"x_max":4433,"o":"m 275 808 l 275 808 q 323 822 297 817 q 368 829 349 828 q 387 825 387 831 q 365 784 387 823 q 312 690 343 745 q 210 512 245 576 q 162 423 174 449 q 153 395 150 397 q 191 389 157 391 q 273 387 225 387 l 389 387 l 383 321 q 379 277 381 301 q 372 200 376 232 l 367 146 l 335 151 q 198 212 264 161 q 95 334 132 262 q 77 377 83 359 q 69 418 71 395 q 68 488 68 441 q 69 556 68 532 q 75 596 71 580 q 90 633 80 613 q 275 808 148 756 m 430 766 l 430 766 l 440 830 l 471 825 q 607 759 541 812 q 708 635 673 706 q 723 597 718 614 q 729 556 728 581 q 731 488 731 532 q 729 420 731 444 q 723 380 728 397 q 708 342 718 363 q 551 182 654 235 q 497 160 527 170 q 444 148 467 151 q 420 150 420 144 q 454 212 420 152 q 535 360 487 273 q 617 508 584 446 q 650 573 650 570 q 530 582 650 581 l 410 582 l 416 642 q 422 702 418 667 q 430 766 426 737 m 1612 747 l 1612 747 q 1721 758 1649 760 q 1788 751 1765 756 q 1839 730 1811 746 q 1952 613 1912 692 q 1968 570 1965 593 q 1972 492 1972 547 q 1968 415 1972 438 q 1952 372 1965 393 q 1729 227 1880 234 q 1619 238 1665 222 q 1531 294 1574 253 q 1465 380 1484 335 q 1446 492 1446 426 q 1450 556 1446 532 q 1466 606 1454 581 q 1528 689 1485 648 q 1612 747 1571 730 m 1777 608 l 1777 608 q 1690 624 1733 633 q 1615 579 1646 614 q 1585 492 1585 544 q 1620 398 1585 435 q 1712 361 1656 361 q 1801 399 1763 361 q 1840 492 1838 437 q 1821 555 1840 520 q 1777 608 1802 591 m 3211 746 l 3211 746 q 3317 760 3258 762 q 3419 739 3377 758 q 3452 721 3438 730 q 3469 707 3466 711 q 3462 682 3471 699 q 3440 646 3454 665 q 3414 614 3427 627 q 3396 602 3402 602 q 3383 607 3392 604 q 3346 620 3366 612 q 3267 621 3304 634 q 3207 573 3230 608 q 3183 491 3183 539 q 3220 397 3183 433 q 3313 361 3256 361 l 3353 361 l 3353 416 l 3353 472 l 3419 469 l 3485 467 l 3485 370 l 3485 271 l 3446 251 q 3338 225 3405 229 q 3218 237 3270 222 q 3129 294 3172 253 q 3063 380 3085 334 q 3042 495 3041 433 q 3067 609 3042 558 q 3130 692 3089 653 q 3211 746 3171 731 m 1020 742 l 1020 742 q 1060 750 1020 748 q 1204 750 1101 751 l 1385 747 l 1385 692 l 1385 637 l 1273 635 l 1160 632 l 1160 582 l 1160 532 l 1243 529 l 1326 526 l 1326 467 l 1326 408 l 1243 405 l 1160 402 l 1160 317 l 1160 233 l 1090 235 l 1020 237 l 1017 484 q 1017 661 1017 588 q 1020 742 1018 734 m 2061 492 l 2061 492 l 2061 752 l 2136 752 l 2210 751 l 2296 609 l 2384 467 l 2384 610 l 2384 752 l 2452 752 l 2520 752 l 2520 492 l 2520 233 l 2446 235 l 2372 237 l 2287 380 l 2201 522 l 2197 380 l 2193 237 l 2127 235 l 2061 233 l 2061 492 m 2597 692 l 2597 692 l 2597 752 l 2803 750 l 3009 747 l 3009 692 l 3009 637 l 2943 635 l 2877 632 l 2875 435 l 2873 237 l 2803 235 l 2732 233 l 2732 433 l 2732 633 l 2665 633 l 2597 633 l 2597 692 m 3583 492 l 3583 492 l 3583 752 l 3772 750 l 3961 747 l 3961 692 l 3961 637 l 3840 635 l 3718 632 l 3718 590 l 3718 548 l 3812 548 l 3906 548 l 3906 492 l 3906 437 l 3812 437 l 3718 437 l 3718 395 l 3718 352 l 3842 352 l 3965 352 l 3965 293 l 3965 233 l 3774 233 l 3583 233 l 3583 492 m 4020 740 l 4020 740 q 4038 747 4020 745 q 4102 751 4057 750 q 4228 752 4146 752 l 4433 752 l 4433 692 l 4433 633 l 4365 633 l 4297 633 l 4297 433 l 4297 233 l 4227 235 l 4156 237 l 4154 435 l 4152 632 l 4086 635 l 4020 637 l 4017 683 q 4017 718 4017 702 q 4020 740 4017 734 z "},"¡":{"ha":518,"x_min":0,"x_max":0,"o":""},"¢":{"ha":518,"x_min":0,"x_max":0,"o":""},"£":{"ha":518,"x_min":0,"x_max":0,"o":""},"¤":{"ha":518,"x_min":0,"x_max":0,"o":""},"¥":{"ha":518,"x_min":0,"x_max":0,"o":""},"¦":{"ha":518,"x_min":0,"x_max":0,"o":""},"§":{"ha":518,"x_min":0,"x_max":0,"o":""},"¨":{"ha":518,"x_min":0,"x_max":0,"o":""},"©":{"ha":518,"x_min":0,"x_max":0,"o":""},"ª":{"ha":518,"x_min":0,"x_max":0,"o":""},"«":{"ha":518,"x_min":0,"x_max":0,"o":""},"¬":{"ha":518,"x_min":0,"x_max":0,"o":""},"®":{"ha":518,"x_min":0,"x_max":0,"o":""},"¯":{"ha":518,"x_min":0,"x_max":0,"o":""},"°":{"ha":1160,"x_min":32,"x_max":528,"o":"m 528 708 q 510 613 528 656 q 459 539 492 570 q 381 492 427 509 q 279 475 335 475 q 179 492 225 475 q 101 539 134 509 q 50 613 68 570 q 32 708 32 656 q 50 802 32 760 q 101 876 68 845 q 179 923 134 907 q 279 940 225 940 q 381 923 335 940 q 459 876 427 907 q 510 802 492 845 q 528 708 528 760 m 279 570 q 384 607 346 570 q 422 708 422 644 q 384 808 422 771 q 279 845 346 845 q 176 808 214 845 q 138 708 138 771 q 176 607 138 644 q 279 570 214 570 z "},"±":{"ha":518,"x_min":0,"x_max":0,"o":""},"²":{"ha":518,"x_min":0,"x_max":0,"o":""},"³":{"ha":518,"x_min":0,"x_max":0,"o":""},"´":{"ha":518,"x_min":0,"x_max":0,"o":""},"µ":{"ha":518,"x_min":0,"x_max":0,"o":""},"¶":{"ha":518,"x_min":0,"x_max":0,"o":""},"·":{"ha":518,"x_min":0,"x_max":0,"o":""},"∙":{"ha":518,"x_min":0,"x_max":0,"o":""},"¸":{"ha":518,"x_min":0,"x_max":0,"o":""},"¹":{"ha":518,"x_min":0,"x_max":0,"o":""},"º":{"ha":518,"x_min":0,"x_max":0,"o":""},"»":{"ha":518,"x_min":0,"x_max":0,"o":""},"¼":{"ha":518,"x_min":0,"x_max":0,"o":""},"½":{"ha":518,"x_min":0,"x_max":0,"o":""},"¾":{"ha":518,"x_min":0,"x_max":0,"o":""},"¿":{"ha":518,"x_min":0,"x_max":0,"o":""},"À":{"ha":518,"x_min":0,"x_max":0,"o":""},"Á":{"ha":518,"x_min":0,"x_max":0,"o":""},"Â":{"ha":518,"x_min":0,"x_max":0,"o":""},"Ã":{"ha":518,"x_min":0,"x_max":0,"o":""},"Ä":{"ha":518,"x_min":0,"x_max":0,"o":""},"Å":{"ha":518,"x_min":0,"x_max":0,"o":""},"Æ":{"ha":518,"x_min":0,"x_max":0,"o":""},"Ç":{"ha":518,"x_min":0,"x_max":0,"o":""},"È":{"ha":518,"x_min":0,"x_max":0,"o":""},"É":{"ha":518,"x_min":0,"x_max":0,"o":""},"Ê":{"ha":518,"x_min":0,"x_max":0,"o":""},"Ë":{"ha":518,"x_min":0,"x_max":0,"o":""},"Ì":{"ha":518,"x_min":0,"x_max":0,"o":""},"Í":{"ha":518,"x_min":0,"x_max":0,"o":""},"Î":{"ha":518,"x_min":0,"x_max":0,"o":""},"Ï":{"ha":518,"x_min":0,"x_max":0,"o":""},"Ð":{"ha":518,"x_min":0,"x_max":0,"o":""},"Ñ":{"ha":518,"x_min":0,"x_max":0,"o":""},"Ò":{"ha":518,"x_min":0,"x_max":0,"o":""},"Ó":{"ha":518,"x_min":0,"x_max":0,"o":""},"Ô":{"ha":518,"x_min":0,"x_max":0,"o":""},"Õ":{"ha":518,"x_min":0,"x_max":0,"o":""},"Ö":{"ha":518,"x_min":0,"x_max":0,"o":""},"×":{"ha":518,"x_min":0,"x_max":0,"o":""},"Ø":{"ha":518,"x_min":0,"x_max":0,"o":""},"Ù":{"ha":518,"x_min":0,"x_max":0,"o":""},"Ú":{"ha":518,"x_min":0,"x_max":0,"o":""},"Û":{"ha":518,"x_min":0,"x_max":0,"o":""},"Ü":{"ha":518,"x_min":0,"x_max":0,"o":""},"Ý":{"ha":518,"x_min":0,"x_max":0,"o":""},"Þ":{"ha":518,"x_min":0,"x_max":0,"o":""},"ß":{"ha":518,"x_min":0,"x_max":0,"o":""},"à":{"ha":518,"x_min":0,"x_max":0,"o":""},"á":{"ha":518,"x_min":0,"x_max":0,"o":""},"â":{"ha":518,"x_min":0,"x_max":0,"o":""},"ã":{"ha":518,"x_min":0,"x_max":0,"o":""},"ä":{"ha":518,"x_min":0,"x_max":0,"o":""},"å":{"ha":518,"x_min":0,"x_max":0,"o":""},"æ":{"ha":518,"x_min":0,"x_max":0,"o":""},"ç":{"ha":518,"x_min":0,"x_max":0,"o":""},"è":{"ha":518,"x_min":0,"x_max":0,"o":""},"é":{"ha":518,"x_min":0,"x_max":0,"o":""},"ê":{"ha":518,"x_min":0,"x_max":0,"o":""},"ë":{"ha":518,"x_min":0,"x_max":0,"o":""},"ì":{"ha":518,"x_min":0,"x_max":0,"o":""},"í":{"ha":518,"x_min":0,"x_max":0,"o":""},"î":{"ha":518,"x_min":0,"x_max":0,"o":""},"ï":{"ha":518,"x_min":0,"x_max":0,"o":""},"ð":{"ha":518,"x_min":0,"x_max":0,"o":""},"ñ":{"ha":518,"x_min":0,"x_max":0,"o":""},"ò":{"ha":518,"x_min":0,"x_max":0,"o":""},"ó":{"ha":518,"x_min":0,"x_max":0,"o":""},"ô":{"ha":518,"x_min":0,"x_max":0,"o":""},"õ":{"ha":518,"x_min":0,"x_max":0,"o":""},"ö":{"ha":518,"x_min":0,"x_max":0,"o":""},"÷":{"ha":518,"x_min":0,"x_max":0,"o":""},"ø":{"ha":518,"x_min":0,"x_max":0,"o":""},"ù":{"ha":518,"x_min":0,"x_max":0,"o":""},"ú":{"ha":518,"x_min":0,"x_max":0,"o":""},"û":{"ha":518,"x_min":0,"x_max":0,"o":""},"ü":{"ha":518,"x_min":0,"x_max":0,"o":""},"ý":{"ha":518,"x_min":0,"x_max":0,"o":""},"þ":{"ha":518,"x_min":0,"x_max":0,"o":""},"ÿ":{"ha":518,"x_min":0,"x_max":0,"o":""},"ı":{"ha":518,"x_min":0,"x_max":0,"o":""},"̀":{"ha":518,"x_min":0,"x_max":0,"o":""},"́":{"ha":518,"x_min":0,"x_max":0,"o":""},"̂":{"ha":518,"x_min":0,"x_max":0,"o":""},"̃":{"ha":518,"x_min":0,"x_max":0,"o":""},"̄":{"ha":518,"x_min":0,"x_max":0,"o":""},"̇":{"ha":518,"x_min":0,"x_max":0,"o":""},"̈":{"ha":518,"x_min":0,"x_max":0,"o":""},"̊":{"ha":518,"x_min":0,"x_max":0,"o":""},"̌":{"ha":518,"x_min":0,"x_max":0,"o":""},"̧":{"ha":518,"x_min":0,"x_max":0,"o":""},"–":{"ha":406,"x_min":22,"x_max":385,"o":"m 22 378 l 22 482 l 385 482 l 385 378 l 22 378 z "},"—":{"ha":406,"x_min":22,"x_max":385,"o":"m 22 378 l 22 482 l 385 482 l 385 378 l 22 378 z "},"‘":{"ha":271,"x_min":29,"x_max":239,"o":"m 131 568 q 83 578 103 568 q 52 606 64 589 q 35 646 40 624 q 29 692 29 668 q 77 842 29 778 q 192 954 125 905 l 239 899 q 207 871 224 886 q 176 838 191 856 q 152 800 161 819 q 143 758 143 781 q 205 727 180 754 q 229 664 229 700 q 200 596 229 624 q 131 568 171 568 z "},"’":{"ha":271,"x_min":29,"x_max":239,"o":"m 138 954 q 185 944 165 954 q 216 916 204 933 q 233 877 228 899 q 239 831 239 854 q 191 681 239 745 q 77 568 143 616 l 29 624 q 61 651 45 636 q 93 685 78 667 q 116 722 107 703 q 125 764 125 742 q 63 795 87 768 q 39 859 39 822 q 68 926 39 899 q 138 954 97 954 z "},"‚":{"ha":518,"x_min":0,"x_max":0,"o":""},"“":{"ha":496,"x_min":29,"x_max":465,"o":"m 131 568 q 83 578 103 568 q 52 606 64 589 q 35 646 40 624 q 29 692 29 668 q 77 842 29 778 q 192 954 125 905 l 239 899 q 162 816 180 847 q 143 768 143 785 q 144 758 143 761 q 205 727 180 754 q 229 664 229 700 q 200 596 229 624 q 131 568 171 568 m 357 568 q 310 578 329 568 q 278 606 290 589 q 261 646 267 624 q 256 692 256 668 q 303 842 256 778 q 418 954 351 905 l 465 899 q 433 871 450 886 q 402 838 416 856 q 378 800 387 819 q 370 758 370 781 q 431 727 407 754 q 456 664 456 700 q 427 596 456 624 q 357 568 397 568 z "},"”":{"ha":496,"x_min":29,"x_max":465,"o":"m 364 954 q 411 944 392 954 q 443 916 431 933 q 460 877 454 899 q 465 831 465 854 q 417 681 465 745 q 302 568 370 616 l 256 624 q 333 706 314 675 q 351 754 351 737 q 350 764 351 761 q 290 795 314 768 q 265 859 265 822 q 294 926 265 899 q 364 954 323 954 m 138 954 q 185 944 165 954 q 216 916 204 933 q 233 877 228 899 q 239 831 239 854 q 191 681 239 745 q 77 568 143 616 l 29 624 q 61 651 45 636 q 93 685 78 667 q 116 722 107 703 q 125 764 125 742 q 63 795 87 768 q 39 859 39 822 q 68 926 39 899 q 138 954 97 954 z "},"„":{"ha":518,"x_min":0,"x_max":0,"o":""},"†":{"ha":518,"x_min":0,"x_max":0,"o":""},"‡":{"ha":518,"x_min":0,"x_max":0,"o":""},"•":{"ha":518,"x_min":0,"x_max":0,"o":""},"…":{"ha":518,"x_min":0,"x_max":0,"o":""},"‹":{"ha":518,"x_min":0,"x_max":0,"o":""},"›":{"ha":518,"x_min":0,"x_max":0,"o":""},"⁄":{"ha":503,"x_min":-1,"x_max":481,"o":"m 366 1013 l 481 1013 l 114 -151 l -1 -151 l 366 1013 z "},"∕":{"ha":503,"x_min":-1,"x_max":481,"o":"m 366 1013 l 481 1013 l 114 -151 l -1 -151 l 366 1013 z "},"₣":{"ha":518,"x_min":0,"x_max":0,"o":""},"₤":{"ha":518,"x_min":0,"x_max":0,"o":""},"₧":{"ha":518,"x_min":0,"x_max":0,"o":""},"€":{"ha":518,"x_min":0,"x_max":0,"o":""},"№":{"ha":518,"x_min":0,"x_max":0,"o":""},"™":{"ha":518,"x_min":0,"x_max":0,"o":""},"∂":{"ha":518,"x_min":0,"x_max":0,"o":""},"∆":{"ha":518,"x_min":0,"x_max":0,"o":""},"∏":{"ha":518,"x_min":0,"x_max":0,"o":""},"∑":{"ha":518,"x_min":0,"x_max":0,"o":""},"−":{"ha":406,"x_min":22,"x_max":385,"o":"m 22 378 l 22 482 l 385 482 l 385 378 l 22 378 z "},"√":{"ha":518,"x_min":0,"x_max":0,"o":""},"∞":{"ha":518,"x_min":0,"x_max":0,"o":""},"∫":{"ha":518,"x_min":0,"x_max":0,"o":""},"≈":{"ha":518,"x_min":0,"x_max":0,"o":""},"≤":{"ha":518,"x_min":0,"x_max":0,"o":""},"≥":{"ha":518,"x_min":0,"x_max":0,"o":""},"ﬁ":{"ha":518,"x_min":0,"x_max":0,"o":""},"ﬂ":{"ha":518,"x_min":0,"x_max":0,"o":""}}}
